<?xml version="1.0" encoding="UTF-8" standalone="no"?>
<!-- Created with Inkscape (http://www.inkscape.org/) -->

<svg
   width="1000"
   height="1000"
   viewBox="0 0 200 200"
   version="1.1"
   id="svg1"
   inkscape:version="1.3.2 (091e20e, 2023-11-25, custom)"
   xml:space="preserve"
   inkscape:export-filename="icon1.png"
   inkscape:export-xdpi="96"
   inkscape:export-ydpi="96"
   sodipodi:docname="drawing.svg"
   xmlns:inkscape="http://www.inkscape.org/namespaces/inkscape"
   xmlns:sodipodi="http://sodipodi.sourceforge.net/DTD/sodipodi-0.dtd"
   xmlns:xlink="http://www.w3.org/1999/xlink"
   xmlns="http://www.w3.org/2000/svg"
   xmlns:svg="http://www.w3.org/2000/svg"><sodipodi:namedview
     id="namedview1"
     pagecolor="#ffffff"
     bordercolor="#000000"
     borderopacity="0.25"
     inkscape:showpageshadow="2"
     inkscape:pageopacity="0.0"
     inkscape:pagecheckerboard="0"
     inkscape:deskcolor="#d1d1d1"
     inkscape:document-units="px"
     inkscape:zoom="0.762"
     inkscape:cx="550.52493"
     inkscape:cy="526.24672"
     inkscape:window-width="1920"
     inkscape:window-height="1013"
     inkscape:window-x="-9"
     inkscape:window-y="-9"
     inkscape:window-maximized="1"
     inkscape:current-layer="layer2" /><defs
     id="defs1"><linearGradient
       id="linearGradient11"
       inkscape:collect="always"><stop
         style="stop-color:#ffff00;stop-opacity:1;"
         offset="0"
         id="stop12" /><stop
         style="stop-color:#ffff00;stop-opacity:0;"
         offset="1"
         id="stop13" /></linearGradient><linearGradient
       id="linearGradient1"
       inkscape:collect="always"><stop
         style="stop-color:#008000;stop-opacity:1;"
         offset="0"
         id="stop2" /><stop
         style="stop-color:#ffffdb;stop-opacity:1;"
         offset="0.11269791"
         id="stop4" /><stop
         style="stop-color:#9fc200;stop-opacity:0.62352943;"
         offset="0.62651485"
         id="stop3" /><stop
         style="stop-color:#ff6500;stop-opacity:1;"
         offset="1"
         id="stop1" /></linearGradient><linearGradient
       inkscape:collect="always"
       xlink:href="#linearGradient1"
       id="linearGradient2"
       x1="139.43021"
       y1="-24.469585"
       x2="0.82835644"
       y2="-199.81685"
       gradientUnits="userSpaceOnUse" /><linearGradient
       inkscape:collect="always"
       xlink:href="#linearGradient11"
       id="linearGradient13"
       x1="-0.60000002"
       y1="-100"
       x2="200.6"
       y2="-100"
       gradientUnits="userSpaceOnUse" /><filter
       inkscape:collect="always"
       style="color-interpolation-filters:sRGB"
       id="filter13"
       x="-0.065127163"
       y="-0.065127163"
       width="1.1302543"
       height="1.1302543"><feGaussianBlur
         inkscape:collect="always"
         stdDeviation="4.0939303"
         id="feGaussianBlur13" /></filter></defs><g
     inkscape:groupmode="layer"
     id="layer2"
     inkscape:label="Layer 2"
     style="display:inline"><path
       style="mix-blend-mode:normal;fill:url(#linearGradient2);fill-opacity:1;fill-rule:evenodd;stroke:url(#linearGradient13);stroke-width:6.4;stroke-dasharray:none;paint-order:markers fill stroke;filter:url(#filter13)"
       id="path1"
       sodipodi:type="arc"
       sodipodi:cx="0"
       sodipodi:cy="-200"
       sodipodi:rx="200"
       sodipodi:ry="200"
       sodipodi:start="0"
       sodipodi:end="1.5707963"
       sodipodi:arc-type="slice"
       d="M 200,-200 A 200,200 0 0 1 0,0 v -200 z"
       transform="rotate(90,3.9370078,-0.26246722)" /></g><g
     inkscape:label="Layer 1"
     inkscape:groupmode="layer"
     id="layer1"><path
       d="m 59.831582,74.260275 0.338587,0.405025 a 32.085038,31.554829 50.105467 0 0 -4.764493,3.294888 L 28.850252,100.15966 a 32.090317,31.560021 50.105467 0 0 -4.087316,4.10494 l -0.338588,-0.40503 A 23.462552,23.074829 50.105467 0 1 59.831582,74.260275 Z m 62.848588,39.203615 -7.43772,6.2177 a 40.625407,39.954067 50.105467 0 0 -4.86021,-11.22751 l 13.62558,-11.390564 -7.52415,-9.000547 -13.27772,11.099749 -7.524168,-9.000546 4.425898,-3.69992 a 5.8656377,5.7687072 50.105467 0 0 1.87968,-5.796876 L 97.503631,62.284458 86.22006,64.87848 l 3.627364,14.870515 -4.152819,3.471623 a 23.385124,22.998682 50.105467 0 0 -22.764767,3.740119 l -8.851811,7.399817 52.368183,62.643796 a 41.018991,40.341148 50.105467 0 0 10.02597,-23.98381 l 0.45445,0.54362 10.54161,-8.81244 13.99235,6.20651 4.55319,-10.64501 -17.29494,-7.67115 a 5.8656377,5.7687072 50.105467 0 0 -6.03867,0.82182 z m -94.022195,17.43751 -4.152825,3.47163 -13.992331,-6.2065 -4.5532008,10.64501 17.2949558,7.67114 a 5.8656377,5.7687072 50.105467 0 0 6.038645,-0.82182 l 4.425904,-3.69991 7.524169,9.00055 -13.277712,11.09973 7.524162,9.00055 13.626032,-11.39092 a 40.625407,39.954067 50.105467 0 0 10.188114,6.77357 l -7.438174,6.21807 a 5.8656377,5.7687072 50.105467 0 0 -1.879666,5.79687 l 4.484109,18.38137 11.283568,-2.59402 -3.627756,-14.87097 10.54162,-8.81246 -0.453702,-0.54272 a 41.018991,40.341148 50.105467 0 0 25.380521,-5.61639 l -52.368185,-62.6438 -8.851808,7.39983 a 23.385124,22.998682 50.105467 0 0 -7.71644,21.74119 z"
       id="path1-7"
       style="fill:#d40000;stroke-width:0.2" /></g></svg>
