<?xml version="1.0" encoding="us-ascii" standalone="no"?><svg xmlns="http://www.w3.org/2000/svg" xmlns:xlink="http://www.w3.org/1999/xlink" contentStyleType="text/css" height="1118.75px" preserveAspectRatio="none" style="width:3698px;height:1118px;background:#FFFFFF;" version="1.1" viewBox="0 0 3698 1118" width="3698.75px" zoomAndPan="magnify"><defs/><g><text fill="#000000" font-family="Consolas" font-size="17.5" font-weight="bold" lengthAdjust="spacing" textLength="330" x="1675.625" y="29.9829">BugLite: Enumerations and Classes</text><!--cluster Enumerations--><g id="cluster_Enumerations"><path d="M10.625,197.3657 L146.875,197.3657 A4.6875,4.6875 0 0 1 150,200.4907 L158.75,228.2837 L731.875,228.2837 A3.125,3.125 0 0 1 735,231.4087 L735,1107.3657 A3.125,3.125 0 0 1 731.875,1110.4907 L10.625,1110.4907 A3.125,3.125 0 0 1 7.5,1107.3657 L7.5,200.4907 A3.125,3.125 0 0 1 10.625,197.3657 " fill="none" style="stroke:#000000;stroke-width:1.875;"/><line style="stroke:#000000;stroke-width:1.875;" x1="7.5" x2="158.75" y1="228.2837" y2="228.2837"/><text fill="#000000" font-family="Consolas" font-size="20" font-weight="bold" lengthAdjust="spacing" textLength="135" x="12.5" y="219.8462">Enumerations</text></g><!--cluster Domain--><g id="cluster_Domain"><path d="M768.125,91.7407 L836.875,91.7407 A4.6875,4.6875 0 0 1 840,94.8657 L848.75,122.6587 L1508.125,122.6587 A3.125,3.125 0 0 1 1511.25,125.7837 L1511.25,878.6157 A3.125,3.125 0 0 1 1508.125,881.7407 L768.125,881.7407 A3.125,3.125 0 0 1 765,878.6157 L765,94.8657 A3.125,3.125 0 0 1 768.125,91.7407 " fill="none" style="stroke:#000000;stroke-width:1.875;"/><line style="stroke:#000000;stroke-width:1.875;" x1="765" x2="848.75" y1="122.6587" y2="122.6587"/><text fill="#000000" font-family="Consolas" font-size="20" font-weight="bold" lengthAdjust="spacing" textLength="67.5" x="770" y="114.2212">Domain</text></g><!--cluster Management--><g id="cluster_Management"><path d="M3238.125,54.2407 L3351.875,54.2407 A4.6875,4.6875 0 0 1 3355,57.3657 L3363.75,85.1587 L3686.875,85.1587 A3.125,3.125 0 0 1 3690,88.2837 L3690,603.6157 A3.125,3.125 0 0 1 3686.875,606.7407 L3238.125,606.7407 A3.125,3.125 0 0 1 3235,603.6157 L3235,57.3657 A3.125,3.125 0 0 1 3238.125,54.2407 " fill="none" style="stroke:#000000;stroke-width:1.875;"/><line style="stroke:#000000;stroke-width:1.875;" x1="3235" x2="3363.75" y1="85.1587" y2="85.1587"/><text fill="#000000" font-family="Consolas" font-size="20" font-weight="bold" lengthAdjust="spacing" textLength="112.5" x="3240" y="76.7212">Management</text></g><!--cluster Gui--><g id="cluster_Gui"><path d="M1544.375,211.1157 L1579.375,211.1157 A4.6875,4.6875 0 0 1 1582.5,214.2407 L1591.25,242.0337 L3201.875,242.0337 A3.125,3.125 0 0 1 3205,245.1587 L3205,838.6157 A3.125,3.125 0 0 1 3201.875,841.7407 L1544.375,841.7407 A3.125,3.125 0 0 1 1541.25,838.6157 L1541.25,214.2407 A3.125,3.125 0 0 1 1544.375,211.1157 " fill="none" style="stroke:#000000;stroke-width:1.875;"/><line style="stroke:#000000;stroke-width:1.875;" x1="1541.25" x2="1591.25" y1="242.0337" y2="242.0337"/><text fill="#000000" font-family="Consolas" font-size="20" font-weight="bold" lengthAdjust="spacing" textLength="33.75" x="1546.25" y="233.5962">Gui</text></g><!--cluster Controls--><g id="cluster_Controls"><path d="M2134.375,267.3657 L2225.625,267.3657 A4.6875,4.6875 0 0 1 2228.75,270.4907 L2237.5,298.2837 L3171.875,298.2837 A3.125,3.125 0 0 1 3175,301.4087 L3175,808.6157 A3.125,3.125 0 0 1 3171.875,811.7407 L2134.375,811.7407 A3.125,3.125 0 0 1 2131.25,808.6157 L2131.25,270.4907 A3.125,3.125 0 0 1 2134.375,267.3657 " fill="none" style="stroke:#000000;stroke-width:1.875;"/><line style="stroke:#000000;stroke-width:1.875;" x1="2131.25" x2="2237.5" y1="298.2837" y2="298.2837"/><text fill="#000000" font-family="Consolas" font-size="20" font-weight="bold" lengthAdjust="spacing" textLength="90" x="2136.25" y="289.8462">Controls</text></g><!--cluster Dialogs--><g id="cluster_Dialogs"><path d="M1574.375,267.3657 L1654.375,267.3657 A4.6875,4.6875 0 0 1 1657.5,270.4907 L1666.25,298.2837 L2098.125,298.2837 A3.125,3.125 0 0 1 2101.25,301.4087 L2101.25,808.6157 A3.125,3.125 0 0 1 2098.125,811.7407 L1574.375,811.7407 A3.125,3.125 0 0 1 1571.25,808.6157 L1571.25,270.4907 A3.125,3.125 0 0 1 1574.375,267.3657 " fill="none" style="stroke:#000000;stroke-width:1.875;"/><line style="stroke:#000000;stroke-width:1.875;" x1="1571.25" x2="1666.25" y1="298.2837" y2="298.2837"/><text fill="#000000" font-family="Consolas" font-size="20" font-weight="bold" lengthAdjust="spacing" textLength="78.75" x="1576.25" y="289.8462">Dialogs</text></g><!--class Priority--><g id="elem_Priority"><rect codeLine="17" fill="#FFFFFF" height="200.5078" id="Priority" rx="3.125" ry="3.125" style="stroke:#181818;stroke-width:0.625;" width="143.75" x="44.375" y="243.6157"/><ellipse cx="63.125" cy="263.6157" fill="#EB937F" rx="13.75" ry="13.75" style="stroke:#181818;stroke-width:1.25;"/><path d="M62.0703,264.2993 L62.0703,267.229 L67.1875,267.229 L67.1875,266.1548 Q67.1875,265.4321 67.4609,265.1196 Q67.7344,264.8071 68.1836,264.8071 Q68.6328,264.8071 68.9063,265.1196 Q69.1797,265.4321 69.1797,266.1548 L69.1797,269.2407 L59.7656,269.2407 Q59.043,269.2407 58.7305,268.9575 Q58.418,268.6743 58.418,268.2251 Q58.418,267.7954 58.7305,267.5122 Q59.043,267.229 59.7656,267.229 L60.0781,267.229 L60.0781,259.397 L59.7656,259.397 Q59.043,259.397 58.7305,259.1235 Q58.418,258.8501 58.418,258.4009 Q58.418,257.9517 58.7305,257.6685 Q59.043,257.3853 59.7656,257.3853 L68.75,257.4048 L68.75,260.4517 Q68.75,261.1548 68.4766,261.4673 Q68.2031,261.7798 67.7539,261.7798 Q67.3047,261.7798 67.0215,261.4771 Q66.7383,261.1743 66.7383,260.4517 L66.7383,259.397 L62.0703,259.397 L62.0703,262.2876 L63.8281,262.2876 Q63.8281,261.5063 63.9844,261.2915 Q64.2773,260.8032 64.8438,260.8032 Q65.2734,260.8032 65.5566,261.1157 Q65.8398,261.4282 65.8398,262.1509 L65.8398,264.4556 Q65.8398,265.1001 65.6836,265.3345 Q65.3711,265.7837 64.8438,265.7837 Q64.2773,265.7837 63.9844,265.3149 Q63.8281,265.0806 63.8281,264.2993 L62.0703,264.2993 Z " fill="#000000"/><ellipse cx="86.875" cy="262.9907" fill="#84BE84" rx="3.75" ry="3.75" style="stroke:#038048;stroke-width:1.25;"/><text fill="#000000" font-family="Consolas" font-size="20" lengthAdjust="spacing" textLength="90" x="94.375" y="271.8872">Priority</text><line style="stroke:#181818;stroke-width:0.625;" x1="45.625" x2="186.875" y1="283.6157" y2="283.6157"/><ellipse cx="58.125" cy="302.1997" fill="none" rx="3.75" ry="3.75" style="stroke:#038048;stroke-width:1.25;"/><text fill="#000000" font-family="Consolas" font-size="20" lengthAdjust="spacing" textLength="45" x="69.375" y="308.5962">None</text><ellipse cx="58.125" cy="325.6177" fill="none" rx="3.75" ry="3.75" style="stroke:#038048;stroke-width:1.25;"/><text fill="#000000" font-family="Consolas" font-size="20" lengthAdjust="spacing" textLength="33.75" x="69.375" y="332.0142">Low</text><ellipse cx="58.125" cy="349.0356" fill="none" rx="3.75" ry="3.75" style="stroke:#038048;stroke-width:1.25;"/><text fill="#000000" font-family="Consolas" font-size="20" lengthAdjust="spacing" textLength="67.5" x="69.375" y="355.4321">Normal</text><ellipse cx="58.125" cy="372.4536" fill="none" rx="3.75" ry="3.75" style="stroke:#038048;stroke-width:1.25;"/><text fill="#000000" font-family="Consolas" font-size="20" lengthAdjust="spacing" textLength="45" x="69.375" y="378.8501">High</text><ellipse cx="58.125" cy="395.8716" fill="none" rx="3.75" ry="3.75" style="stroke:#038048;stroke-width:1.25;"/><text fill="#000000" font-family="Consolas" font-size="20" lengthAdjust="spacing" textLength="67.5" x="69.375" y="402.2681">Urgent</text><ellipse cx="58.125" cy="419.2896" fill="none" rx="3.75" ry="3.75" style="stroke:#038048;stroke-width:1.25;"/><text fill="#000000" font-family="Consolas" font-size="20" lengthAdjust="spacing" textLength="101.25" x="69.375" y="425.686">Immediate</text><line style="stroke:#181818;stroke-width:0.625;" x1="45.625" x2="186.875" y1="434.1235" y2="434.1235"/></g><!--class Severity--><g id="elem_Severity"><rect codeLine="27" fill="#FFFFFF" height="200.5078" id="Severity" rx="3.125" ry="3.125" style="stroke:#181818;stroke-width:0.625;" width="143.75" x="231.875" y="243.6157"/><ellipse cx="250.625" cy="263.6157" fill="#EB937F" rx="13.75" ry="13.75" style="stroke:#181818;stroke-width:1.25;"/><path d="M249.5703,264.2993 L249.5703,267.229 L254.6875,267.229 L254.6875,266.1548 Q254.6875,265.4321 254.9609,265.1196 Q255.2344,264.8071 255.6836,264.8071 Q256.1328,264.8071 256.4063,265.1196 Q256.6797,265.4321 256.6797,266.1548 L256.6797,269.2407 L247.2656,269.2407 Q246.543,269.2407 246.2305,268.9575 Q245.918,268.6743 245.918,268.2251 Q245.918,267.7954 246.2305,267.5122 Q246.543,267.229 247.2656,267.229 L247.5781,267.229 L247.5781,259.397 L247.2656,259.397 Q246.543,259.397 246.2305,259.1235 Q245.918,258.8501 245.918,258.4009 Q245.918,257.9517 246.2305,257.6685 Q246.543,257.3853 247.2656,257.3853 L256.25,257.4048 L256.25,260.4517 Q256.25,261.1548 255.9766,261.4673 Q255.7031,261.7798 255.2539,261.7798 Q254.8047,261.7798 254.5215,261.4771 Q254.2383,261.1743 254.2383,260.4517 L254.2383,259.397 L249.5703,259.397 L249.5703,262.2876 L251.3281,262.2876 Q251.3281,261.5063 251.4844,261.2915 Q251.7773,260.8032 252.3438,260.8032 Q252.7734,260.8032 253.0566,261.1157 Q253.3398,261.4282 253.3398,262.1509 L253.3398,264.4556 Q253.3398,265.1001 253.1836,265.3345 Q252.8711,265.7837 252.3438,265.7837 Q251.7773,265.7837 251.4844,265.3149 Q251.3281,265.0806 251.3281,264.2993 L249.5703,264.2993 Z " fill="#000000"/><ellipse cx="274.375" cy="262.9907" fill="#84BE84" rx="3.75" ry="3.75" style="stroke:#038048;stroke-width:1.25;"/><text fill="#000000" font-family="Consolas" font-size="20" lengthAdjust="spacing" textLength="90" x="281.875" y="271.8872">Severity</text><line style="stroke:#181818;stroke-width:0.625;" x1="233.125" x2="374.375" y1="283.6157" y2="283.6157"/><ellipse cx="245.625" cy="302.1997" fill="none" rx="3.75" ry="3.75" style="stroke:#038048;stroke-width:1.25;"/><text fill="#000000" font-family="Consolas" font-size="20" lengthAdjust="spacing" textLength="78.75" x="256.875" y="308.5962">Feature</text><ellipse cx="245.625" cy="325.6177" fill="none" rx="3.75" ry="3.75" style="stroke:#038048;stroke-width:1.25;"/><text fill="#000000" font-family="Consolas" font-size="20" lengthAdjust="spacing" textLength="78.75" x="256.875" y="332.0142">Trivial</text><ellipse cx="245.625" cy="349.0356" fill="none" rx="3.75" ry="3.75" style="stroke:#038048;stroke-width:1.25;"/><text fill="#000000" font-family="Consolas" font-size="20" lengthAdjust="spacing" textLength="56.25" x="256.875" y="355.4321">Tweak</text><ellipse cx="245.625" cy="372.4536" fill="none" rx="3.75" ry="3.75" style="stroke:#038048;stroke-width:1.25;"/><text fill="#000000" font-family="Consolas" font-size="20" lengthAdjust="spacing" textLength="56.25" x="256.875" y="378.8501">Minor</text><ellipse cx="245.625" cy="395.8716" fill="none" rx="3.75" ry="3.75" style="stroke:#038048;stroke-width:1.25;"/><text fill="#000000" font-family="Consolas" font-size="20" lengthAdjust="spacing" textLength="56.25" x="256.875" y="402.2681">Major</text><ellipse cx="245.625" cy="419.2896" fill="none" rx="3.75" ry="3.75" style="stroke:#038048;stroke-width:1.25;"/><text fill="#000000" font-family="Consolas" font-size="20" lengthAdjust="spacing" textLength="56.25" x="256.875" y="425.686">Crash</text><line style="stroke:#181818;stroke-width:0.625;" x1="233.125" x2="374.375" y1="434.1235" y2="434.1235"/></g><!--class Reproducibility--><g id="elem_Reproducibility"><rect codeLine="37" fill="#FFFFFF" height="153.6719" id="Reproducibility" rx="3.125" ry="3.125" style="stroke:#181818;stroke-width:0.625;" width="222.5" x="420" y="266.7407"/><ellipse cx="438.75" cy="286.7407" fill="#EB937F" rx="13.75" ry="13.75" style="stroke:#181818;stroke-width:1.25;"/><path d="M437.6953,287.4243 L437.6953,290.354 L442.8125,290.354 L442.8125,289.2798 Q442.8125,288.5571 443.0859,288.2446 Q443.3594,287.9321 443.8086,287.9321 Q444.2578,287.9321 444.5313,288.2446 Q444.8047,288.5571 444.8047,289.2798 L444.8047,292.3657 L435.3906,292.3657 Q434.668,292.3657 434.3555,292.0825 Q434.043,291.7993 434.043,291.3501 Q434.043,290.9204 434.3555,290.6372 Q434.668,290.354 435.3906,290.354 L435.7031,290.354 L435.7031,282.522 L435.3906,282.522 Q434.668,282.522 434.3555,282.2485 Q434.043,281.9751 434.043,281.5259 Q434.043,281.0767 434.3555,280.7935 Q434.668,280.5103 435.3906,280.5103 L444.375,280.5298 L444.375,283.5767 Q444.375,284.2798 444.1016,284.5923 Q443.8281,284.9048 443.3789,284.9048 Q442.9297,284.9048 442.6465,284.6021 Q442.3633,284.2993 442.3633,283.5767 L442.3633,282.522 L437.6953,282.522 L437.6953,285.4126 L439.4531,285.4126 Q439.4531,284.6313 439.6094,284.4165 Q439.9023,283.9282 440.4688,283.9282 Q440.8984,283.9282 441.1816,284.2407 Q441.4648,284.5532 441.4648,285.2759 L441.4648,287.5806 Q441.4648,288.2251 441.3086,288.4595 Q440.9961,288.9087 440.4688,288.9087 Q439.9023,288.9087 439.6094,288.4399 Q439.4531,288.2056 439.4531,287.4243 L437.6953,287.4243 Z " fill="#000000"/><ellipse cx="462.5" cy="286.1157" fill="#84BE84" rx="3.75" ry="3.75" style="stroke:#038048;stroke-width:1.25;"/><text fill="#000000" font-family="Consolas" font-size="20" lengthAdjust="spacing" textLength="168.75" x="470" y="295.0122">Reproducibility</text><line style="stroke:#181818;stroke-width:0.625;" x1="421.25" x2="641.25" y1="306.7407" y2="306.7407"/><ellipse cx="433.75" cy="325.3247" fill="none" rx="3.75" ry="3.75" style="stroke:#038048;stroke-width:1.25;"/><text fill="#000000" font-family="Consolas" font-size="20" lengthAdjust="spacing" textLength="78.75" x="445" y="331.7212">Unknown</text><ellipse cx="433.75" cy="348.7427" fill="none" rx="3.75" ry="3.75" style="stroke:#038048;stroke-width:1.25;"/><text fill="#000000" font-family="Consolas" font-size="20" lengthAdjust="spacing" textLength="101.25" x="445" y="355.1392">Sometimes</text><ellipse cx="433.75" cy="372.1606" fill="none" rx="3.75" ry="3.75" style="stroke:#038048;stroke-width:1.25;"/><text fill="#000000" font-family="Consolas" font-size="20" lengthAdjust="spacing" textLength="67.5" x="445" y="378.5571">Random</text><ellipse cx="433.75" cy="395.5786" fill="none" rx="3.75" ry="3.75" style="stroke:#038048;stroke-width:1.25;"/><text fill="#000000" font-family="Consolas" font-size="20" lengthAdjust="spacing" textLength="67.5" x="445" y="401.9751">Always</text><line style="stroke:#181818;stroke-width:0.625;" x1="421.25" x2="641.25" y1="410.4126" y2="410.4126"/></g><!--class IssueStatus--><g id="elem_IssueStatus"><rect codeLine="45" fill="#FFFFFF" height="153.6719" id="IssueStatus" rx="3.125" ry="3.125" style="stroke:#181818;stroke-width:0.625;" width="177.5" x="27.5" y="684.8657"/><ellipse cx="46.25" cy="704.8657" fill="#EB937F" rx="13.75" ry="13.75" style="stroke:#181818;stroke-width:1.25;"/><path d="M45.1953,705.5493 L45.1953,708.479 L50.3125,708.479 L50.3125,707.4048 Q50.3125,706.6821 50.5859,706.3696 Q50.8594,706.0571 51.3086,706.0571 Q51.7578,706.0571 52.0313,706.3696 Q52.3047,706.6821 52.3047,707.4048 L52.3047,710.4907 L42.8906,710.4907 Q42.168,710.4907 41.8555,710.2075 Q41.543,709.9243 41.543,709.4751 Q41.543,709.0454 41.8555,708.7622 Q42.168,708.479 42.8906,708.479 L43.2031,708.479 L43.2031,700.647 L42.8906,700.647 Q42.168,700.647 41.8555,700.3735 Q41.543,700.1001 41.543,699.6509 Q41.543,699.2017 41.8555,698.9185 Q42.168,698.6353 42.8906,698.6353 L51.875,698.6548 L51.875,701.7017 Q51.875,702.4048 51.6016,702.7173 Q51.3281,703.0298 50.8789,703.0298 Q50.4297,703.0298 50.1465,702.7271 Q49.8633,702.4243 49.8633,701.7017 L49.8633,700.647 L45.1953,700.647 L45.1953,703.5376 L46.9531,703.5376 Q46.9531,702.7563 47.1094,702.5415 Q47.4023,702.0532 47.9688,702.0532 Q48.3984,702.0532 48.6816,702.3657 Q48.9648,702.6782 48.9648,703.4009 L48.9648,705.7056 Q48.9648,706.3501 48.8086,706.5845 Q48.4961,707.0337 47.9688,707.0337 Q47.4023,707.0337 47.1094,706.5649 Q46.9531,706.3306 46.9531,705.5493 L45.1953,705.5493 Z " fill="#000000"/><ellipse cx="70" cy="704.2407" fill="#84BE84" rx="3.75" ry="3.75" style="stroke:#038048;stroke-width:1.25;"/><text fill="#000000" font-family="Consolas" font-size="20" lengthAdjust="spacing" textLength="123.75" x="77.5" y="713.1372">IssueStatus</text><line style="stroke:#181818;stroke-width:0.625;" x1="28.75" x2="203.75" y1="724.8657" y2="724.8657"/><ellipse cx="41.25" cy="743.4497" fill="none" rx="3.75" ry="3.75" style="stroke:#038048;stroke-width:1.25;"/><text fill="#000000" font-family="Consolas" font-size="20" lengthAdjust="spacing" textLength="33.75" x="52.5" y="749.8462">New</text><ellipse cx="41.25" cy="766.8677" fill="none" rx="3.75" ry="3.75" style="stroke:#038048;stroke-width:1.25;"/><text fill="#000000" font-family="Consolas" font-size="20" lengthAdjust="spacing" textLength="90" x="52.5" y="773.2642">Assigned</text><ellipse cx="41.25" cy="790.2856" fill="none" rx="3.75" ry="3.75" style="stroke:#038048;stroke-width:1.25;"/><text fill="#000000" font-family="Consolas" font-size="20" lengthAdjust="spacing" textLength="90" x="52.5" y="796.6821">Resolved</text><ellipse cx="41.25" cy="813.7036" fill="none" rx="3.75" ry="3.75" style="stroke:#038048;stroke-width:1.25;"/><text fill="#000000" font-family="Consolas" font-size="20" lengthAdjust="spacing" textLength="67.5" x="52.5" y="820.1001">Closed</text><line style="stroke:#181818;stroke-width:0.625;" x1="28.75" x2="203.75" y1="828.5376" y2="828.5376"/></g><!--class IssueResolution--><g id="elem_IssueResolution"><rect codeLine="53" fill="#FFFFFF" height="200.5078" id="IssueResolution" rx="3.125" ry="3.125" style="stroke:#181818;stroke-width:0.625;" width="222.5" x="248.75" y="661.7407"/><ellipse cx="267.5" cy="681.7407" fill="#EB937F" rx="13.75" ry="13.75" style="stroke:#181818;stroke-width:1.25;"/><path d="M266.4453,682.4243 L266.4453,685.354 L271.5625,685.354 L271.5625,684.2798 Q271.5625,683.5571 271.8359,683.2446 Q272.1094,682.9321 272.5586,682.9321 Q273.0078,682.9321 273.2813,683.2446 Q273.5547,683.5571 273.5547,684.2798 L273.5547,687.3657 L264.1406,687.3657 Q263.418,687.3657 263.1055,687.0825 Q262.793,686.7993 262.793,686.3501 Q262.793,685.9204 263.1055,685.6372 Q263.418,685.354 264.1406,685.354 L264.4531,685.354 L264.4531,677.522 L264.1406,677.522 Q263.418,677.522 263.1055,677.2485 Q262.793,676.9751 262.793,676.5259 Q262.793,676.0767 263.1055,675.7935 Q263.418,675.5103 264.1406,675.5103 L273.125,675.5298 L273.125,678.5767 Q273.125,679.2798 272.8516,679.5923 Q272.5781,679.9048 272.1289,679.9048 Q271.6797,679.9048 271.3965,679.6021 Q271.1133,679.2993 271.1133,678.5767 L271.1133,677.522 L266.4453,677.522 L266.4453,680.4126 L268.2031,680.4126 Q268.2031,679.6313 268.3594,679.4165 Q268.6523,678.9282 269.2188,678.9282 Q269.6484,678.9282 269.9316,679.2407 Q270.2148,679.5532 270.2148,680.2759 L270.2148,682.5806 Q270.2148,683.2251 270.0586,683.4595 Q269.7461,683.9087 269.2188,683.9087 Q268.6523,683.9087 268.3594,683.4399 Q268.2031,683.2056 268.2031,682.4243 L266.4453,682.4243 Z " fill="#000000"/><ellipse cx="291.25" cy="681.1157" fill="#84BE84" rx="3.75" ry="3.75" style="stroke:#038048;stroke-width:1.25;"/><text fill="#000000" font-family="Consolas" font-size="20" lengthAdjust="spacing" textLength="168.75" x="298.75" y="690.0122">IssueResolution</text><line style="stroke:#181818;stroke-width:0.625;" x1="250" x2="470" y1="701.7407" y2="701.7407"/><ellipse cx="262.5" cy="720.3247" fill="none" rx="3.75" ry="3.75" style="stroke:#038048;stroke-width:1.25;"/><text fill="#000000" font-family="Consolas" font-size="20" lengthAdjust="spacing" textLength="45" x="273.75" y="726.7212">Open</text><ellipse cx="262.5" cy="743.7427" fill="none" rx="3.75" ry="3.75" style="stroke:#038048;stroke-width:1.25;"/><text fill="#000000" font-family="Consolas" font-size="20" lengthAdjust="spacing" textLength="56.25" x="273.75" y="750.1392">Fixed</text><ellipse cx="262.5" cy="767.1606" fill="none" rx="3.75" ry="3.75" style="stroke:#038048;stroke-width:1.25;"/><text fill="#000000" font-family="Consolas" font-size="20" lengthAdjust="spacing" textLength="157.5" x="273.75" y="773.5571">Unreproducible</text><ellipse cx="262.5" cy="790.5786" fill="none" rx="3.75" ry="3.75" style="stroke:#038048;stroke-width:1.25;"/><text fill="#000000" font-family="Consolas" font-size="20" lengthAdjust="spacing" textLength="101.25" x="273.75" y="796.9751">Unfixable</text><ellipse cx="262.5" cy="813.9966" fill="none" rx="3.75" ry="3.75" style="stroke:#038048;stroke-width:1.25;"/><text fill="#000000" font-family="Consolas" font-size="20" lengthAdjust="spacing" textLength="180" x="273.75" y="820.3931">NoChangeRequired</text><ellipse cx="262.5" cy="837.4146" fill="none" rx="3.75" ry="3.75" style="stroke:#038048;stroke-width:1.25;"/><text fill="#000000" font-family="Consolas" font-size="20" lengthAdjust="spacing" textLength="78.75" x="273.75" y="843.811">WontFix</text><line style="stroke:#181818;stroke-width:0.625;" x1="250" x2="470" y1="852.2485" y2="852.2485"/></g><!--class ProjectStatus--><g id="elem_ProjectStatus"><rect codeLine="62" fill="#FFFFFF" height="130.2539" id="ProjectStatus" rx="3.125" ry="3.125" style="stroke:#181818;stroke-width:0.625;" width="200" x="515" y="696.7407"/><ellipse cx="533.75" cy="716.7407" fill="#EB937F" rx="13.75" ry="13.75" style="stroke:#181818;stroke-width:1.25;"/><path d="M532.6953,717.4243 L532.6953,720.354 L537.8125,720.354 L537.8125,719.2798 Q537.8125,718.5571 538.0859,718.2446 Q538.3594,717.9321 538.8086,717.9321 Q539.2578,717.9321 539.5313,718.2446 Q539.8047,718.5571 539.8047,719.2798 L539.8047,722.3657 L530.3906,722.3657 Q529.668,722.3657 529.3555,722.0825 Q529.043,721.7993 529.043,721.3501 Q529.043,720.9204 529.3555,720.6372 Q529.668,720.354 530.3906,720.354 L530.7031,720.354 L530.7031,712.522 L530.3906,712.522 Q529.668,712.522 529.3555,712.2485 Q529.043,711.9751 529.043,711.5259 Q529.043,711.0767 529.3555,710.7935 Q529.668,710.5103 530.3906,710.5103 L539.375,710.5298 L539.375,713.5767 Q539.375,714.2798 539.1016,714.5923 Q538.8281,714.9048 538.3789,714.9048 Q537.9297,714.9048 537.6465,714.6021 Q537.3633,714.2993 537.3633,713.5767 L537.3633,712.522 L532.6953,712.522 L532.6953,715.4126 L534.4531,715.4126 Q534.4531,714.6313 534.6094,714.4165 Q534.9023,713.9282 535.4688,713.9282 Q535.8984,713.9282 536.1816,714.2407 Q536.4648,714.5532 536.4648,715.2759 L536.4648,717.5806 Q536.4648,718.2251 536.3086,718.4595 Q535.9961,718.9087 535.4688,718.9087 Q534.9023,718.9087 534.6094,718.4399 Q534.4531,718.2056 534.4531,717.4243 L532.6953,717.4243 Z " fill="#000000"/><ellipse cx="557.5" cy="716.1157" fill="#84BE84" rx="3.75" ry="3.75" style="stroke:#038048;stroke-width:1.25;"/><text fill="#000000" font-family="Consolas" font-size="20" lengthAdjust="spacing" textLength="146.25" x="565" y="725.0122">ProjectStatus</text><line style="stroke:#181818;stroke-width:0.625;" x1="516.25" x2="713.75" y1="736.7407" y2="736.7407"/><ellipse cx="528.75" cy="755.3247" fill="none" rx="3.75" ry="3.75" style="stroke:#038048;stroke-width:1.25;"/><text fill="#000000" font-family="Consolas" font-size="20" lengthAdjust="spacing" textLength="123.75" x="540" y="761.7212">Development</text><ellipse cx="528.75" cy="778.7427" fill="none" rx="3.75" ry="3.75" style="stroke:#038048;stroke-width:1.25;"/><text fill="#000000" font-family="Consolas" font-size="20" lengthAdjust="spacing" textLength="78.75" x="540" y="785.1392">Release</text><ellipse cx="528.75" cy="802.1606" fill="none" rx="3.75" ry="3.75" style="stroke:#038048;stroke-width:1.25;"/><text fill="#000000" font-family="Consolas" font-size="20" lengthAdjust="spacing" textLength="67.5" x="540" y="808.5571">Stable</text><line style="stroke:#181818;stroke-width:0.625;" x1="516.25" x2="713.75" y1="816.9946" y2="816.9946"/></g><!--class UserLevel--><g id="elem_UserLevel"><rect codeLine="69" fill="#FFFFFF" height="153.6719" id="UserLevel" rx="3.125" ry="3.125" style="stroke:#181818;stroke-width:0.625;" width="178.75" x="28.125" y="936.7407"/><ellipse cx="57.5625" cy="956.7407" fill="#EB937F" rx="13.75" ry="13.75" style="stroke:#181818;stroke-width:1.25;"/><path d="M56.5078,957.4243 L56.5078,960.354 L61.625,960.354 L61.625,959.2798 Q61.625,958.5571 61.8984,958.2446 Q62.1719,957.9321 62.6211,957.9321 Q63.0703,957.9321 63.3438,958.2446 Q63.6172,958.5571 63.6172,959.2798 L63.6172,962.3657 L54.2031,962.3657 Q53.4805,962.3657 53.168,962.0825 Q52.8555,961.7993 52.8555,961.3501 Q52.8555,960.9204 53.168,960.6372 Q53.4805,960.354 54.2031,960.354 L54.5156,960.354 L54.5156,952.522 L54.2031,952.522 Q53.4805,952.522 53.168,952.2485 Q52.8555,951.9751 52.8555,951.5259 Q52.8555,951.0767 53.168,950.7935 Q53.4805,950.5103 54.2031,950.5103 L63.1875,950.5298 L63.1875,953.5767 Q63.1875,954.2798 62.9141,954.5923 Q62.6406,954.9048 62.1914,954.9048 Q61.7422,954.9048 61.459,954.6021 Q61.1758,954.2993 61.1758,953.5767 L61.1758,952.522 L56.5078,952.522 L56.5078,955.4126 L58.2656,955.4126 Q58.2656,954.6313 58.4219,954.4165 Q58.7148,953.9282 59.2813,953.9282 Q59.7109,953.9282 59.9941,954.2407 Q60.2773,954.5532 60.2773,955.2759 L60.2773,957.5806 Q60.2773,958.2251 60.1211,958.4595 Q59.8086,958.9087 59.2813,958.9087 Q58.7148,958.9087 58.4219,958.4399 Q58.2656,958.2056 58.2656,957.4243 L56.5078,957.4243 Z " fill="#000000"/><ellipse cx="83.6875" cy="956.1157" fill="#84BE84" rx="3.75" ry="3.75" style="stroke:#038048;stroke-width:1.25;"/><text fill="#000000" font-family="Consolas" font-size="20" lengthAdjust="spacing" textLength="101.25" x="91.1875" y="965.0122">UserLevel</text><line style="stroke:#181818;stroke-width:0.625;" x1="29.375" x2="205.625" y1="976.7407" y2="976.7407"/><ellipse cx="41.875" cy="995.3247" fill="none" rx="3.75" ry="3.75" style="stroke:#038048;stroke-width:1.25;"/><text fill="#000000" font-family="Consolas" font-size="20" lengthAdjust="spacing" textLength="67.5" x="53.125" y="1001.7212">Viewer</text><ellipse cx="41.875" cy="1018.7427" fill="none" rx="3.75" ry="3.75" style="stroke:#038048;stroke-width:1.25;"/><text fill="#000000" font-family="Consolas" font-size="20" lengthAdjust="spacing" textLength="90" x="53.125" y="1025.1392">Reporter</text><ellipse cx="41.875" cy="1042.1606" fill="none" rx="3.75" ry="3.75" style="stroke:#038048;stroke-width:1.25;"/><text fill="#000000" font-family="Consolas" font-size="20" lengthAdjust="spacing" textLength="101.25" x="53.125" y="1048.5571">Developer</text><ellipse cx="41.875" cy="1065.5786" fill="none" rx="3.75" ry="3.75" style="stroke:#038048;stroke-width:1.25;"/><text fill="#000000" font-family="Consolas" font-size="20" lengthAdjust="spacing" textLength="146.25" x="53.125" y="1071.9751">Administrator</text><line style="stroke:#181818;stroke-width:0.625;" x1="29.375" x2="205.625" y1="1080.4126" y2="1080.4126"/></g><!--class Issue--><g id="elem_Issue"><rect codeLine="80" fill="#FFFFFF" height="411.2695" id="Issue" rx="3.125" ry="3.125" style="stroke:#181818;stroke-width:0.625;" width="392.5" x="785" y="137.9907"/><ellipse cx="940.9375" cy="157.9907" fill="#ADD1B2" rx="13.75" ry="13.75" style="stroke:#181818;stroke-width:1.25;"/><path d="M944.1406,152.9126 Q944.3359,152.6587 944.5508,152.5317 Q944.7656,152.4048 945.0195,152.4048 Q945.4688,152.4048 945.7422,152.7075 Q946.0156,153.0103 946.0156,153.7329 L946.0156,155.4321 Q946.0156,156.1548 945.7422,156.4575 Q945.4688,156.7603 945.0195,156.7603 Q944.6289,156.7603 944.375,156.5454 Q944.1406,156.311 944.0234,155.7056 Q943.9453,155.2954 943.75,155.061 Q943.3398,154.6313 942.627,154.3677 Q941.9141,154.104 941.1914,154.104 Q940.293,154.104 939.541,154.4946 Q938.7891,154.8853 938.2129,155.7642 Q937.6367,156.6431 937.6367,157.854 L937.6367,159.1431 Q937.6367,160.5884 938.6816,161.5552 Q939.7266,162.522 941.6016,162.522 Q942.7148,162.522 943.4766,162.229 Q943.9258,162.0532 944.4336,161.5259 Q944.7461,161.2134 944.9219,161.1255 Q945.0977,161.0376 945.332,161.0376 Q945.7227,161.0376 946.0254,161.3403 Q946.3281,161.6431 946.3281,162.0532 Q946.3281,162.4634 945.918,162.9321 Q945.332,163.6157 944.3945,164.0063 Q943.125,164.5337 941.6016,164.5337 Q939.8242,164.5337 938.3984,163.7915 Q937.2461,163.2056 936.4355,161.9458 Q935.625,160.686 935.625,159.1821 L935.625,157.8345 Q935.625,156.272 936.3574,154.9146 Q937.0898,153.5571 938.3789,152.8247 Q939.668,152.0923 941.1133,152.0923 Q941.9727,152.0923 942.7344,152.2974 Q943.4961,152.5024 944.1406,152.9126 Z " fill="#000000"/><ellipse cx="972.8125" cy="157.3657" fill="#84BE84" rx="3.75" ry="3.75" style="stroke:#038048;stroke-width:1.25;"/><text fill="#000000" font-family="Consolas" font-size="20" lengthAdjust="spacing" textLength="56.25" x="980.3125" y="166.2622">Issue</text><line style="stroke:#181818;stroke-width:0.625;" x1="786.25" x2="1176.25" y1="177.9907" y2="177.9907"/><ellipse cx="798.75" cy="196.5747" fill="none" rx="3.75" ry="3.75" style="stroke:#038048;stroke-width:1.25;"/><text fill="#000000" font-family="Consolas" font-size="20" lengthAdjust="spacing" textLength="135" x="810" y="202.9712">IssueId: int</text><ellipse cx="798.75" cy="219.9927" fill="none" rx="3.75" ry="3.75" style="stroke:#038048;stroke-width:1.25;"/><text fill="#000000" font-family="Consolas" font-size="20" lengthAdjust="spacing" textLength="157.5" x="810" y="226.3892">ProjectId: int</text><ellipse cx="798.75" cy="243.4106" fill="none" rx="3.75" ry="3.75" style="stroke:#038048;stroke-width:1.25;"/><text fill="#000000" font-family="Consolas" font-size="20" lengthAdjust="spacing" textLength="180" x="810" y="249.8071">SubmitterId: int</text><ellipse cx="798.75" cy="266.8286" fill="none" rx="3.75" ry="3.75" style="stroke:#038048;stroke-width:1.25;"/><text fill="#000000" font-family="Consolas" font-size="20" lengthAdjust="spacing" textLength="202.5" x="810" y="273.2251">AssignedToId: int?</text><ellipse cx="798.75" cy="290.2466" fill="none" rx="3.75" ry="3.75" style="stroke:#038048;stroke-width:1.25;"/><text fill="#000000" font-family="Consolas" font-size="20" lengthAdjust="spacing" textLength="236.25" x="810" y="296.6431">SubmittedOn: DateTime</text><ellipse cx="798.75" cy="313.6646" fill="none" rx="3.75" ry="3.75" style="stroke:#038048;stroke-width:1.25;"/><text fill="#000000" font-family="Consolas" font-size="20" lengthAdjust="spacing" textLength="247.5" x="810" y="320.061">LastUpdated: DateTime?</text><ellipse cx="798.75" cy="337.0825" fill="none" rx="3.75" ry="3.75" style="stroke:#038048;stroke-width:1.25;"/><text fill="#000000" font-family="Consolas" font-size="20" lengthAdjust="spacing" textLength="202.5" x="810" y="343.479">Priority: Priority</text><ellipse cx="798.75" cy="360.5005" fill="none" rx="3.75" ry="3.75" style="stroke:#038048;stroke-width:1.25;"/><text fill="#000000" font-family="Consolas" font-size="20" lengthAdjust="spacing" textLength="202.5" x="810" y="366.897">Severity: Severity</text><ellipse cx="798.75" cy="383.9185" fill="none" rx="3.75" ry="3.75" style="stroke:#038048;stroke-width:1.25;"/><text fill="#000000" font-family="Consolas" font-size="20" lengthAdjust="spacing" textLength="360" x="810" y="390.3149">Reproducibility: Reproducibility</text><ellipse cx="798.75" cy="407.3364" fill="none" rx="3.75" ry="3.75" style="stroke:#038048;stroke-width:1.25;"/><text fill="#000000" font-family="Consolas" font-size="20" lengthAdjust="spacing" textLength="213.75" x="810" y="413.7329">Status: IssueStatus</text><ellipse cx="798.75" cy="430.7544" fill="none" rx="3.75" ry="3.75" style="stroke:#038048;stroke-width:1.25;"/><text fill="#000000" font-family="Consolas" font-size="20" lengthAdjust="spacing" textLength="168.75" x="810" y="437.1509">Summary: string</text><ellipse cx="798.75" cy="454.1724" fill="none" rx="3.75" ry="3.75" style="stroke:#038048;stroke-width:1.25;"/><text fill="#000000" font-family="Consolas" font-size="20" lengthAdjust="spacing" textLength="213.75" x="810" y="460.5688">Description: string</text><ellipse cx="798.75" cy="477.5903" fill="none" rx="3.75" ry="3.75" style="stroke:#038048;stroke-width:1.25;"/><text fill="#000000" font-family="Consolas" font-size="20" lengthAdjust="spacing" textLength="270" x="810" y="483.9868">StetsToReproduce: string</text><ellipse cx="798.75" cy="501.0083" fill="none" rx="3.75" ry="3.75" style="stroke:#038048;stroke-width:1.25;"/><text fill="#000000" font-family="Consolas" font-size="20" lengthAdjust="spacing" textLength="247.5" x="810" y="507.4048">AdditionalInfo: string</text><ellipse cx="798.75" cy="524.4263" fill="none" rx="3.75" ry="3.75" style="stroke:#038048;stroke-width:1.25;"/><text fill="#000000" font-family="Consolas" font-size="20" lengthAdjust="spacing" textLength="247.5" x="810" y="530.8228">Notes: List&lt;IssueNote&gt;</text><line style="stroke:#181818;stroke-width:0.625;" x1="786.25" x2="1176.25" y1="539.2603" y2="539.2603"/></g><!--class IssueNote--><g id="elem_IssueNote"><rect codeLine="99" fill="#FFFFFF" height="130.2539" id="IssueNote" rx="3.125" ry="3.125" style="stroke:#181818;stroke-width:0.625;" width="268.75" x="1221.875" y="278.6157"/><ellipse cx="1293.4375" cy="298.6157" fill="#ADD1B2" rx="13.75" ry="13.75" style="stroke:#181818;stroke-width:1.25;"/><path d="M1296.6406,293.5376 Q1296.8359,293.2837 1297.0508,293.1567 Q1297.2656,293.0298 1297.5195,293.0298 Q1297.9688,293.0298 1298.2422,293.3325 Q1298.5156,293.6353 1298.5156,294.3579 L1298.5156,296.0571 Q1298.5156,296.7798 1298.2422,297.0825 Q1297.9688,297.3853 1297.5195,297.3853 Q1297.1289,297.3853 1296.875,297.1704 Q1296.6406,296.936 1296.5234,296.3306 Q1296.4453,295.9204 1296.25,295.686 Q1295.8398,295.2563 1295.127,294.9927 Q1294.4141,294.729 1293.6914,294.729 Q1292.793,294.729 1292.041,295.1196 Q1291.2891,295.5103 1290.7129,296.3892 Q1290.1367,297.2681 1290.1367,298.479 L1290.1367,299.7681 Q1290.1367,301.2134 1291.1816,302.1802 Q1292.2266,303.147 1294.1016,303.147 Q1295.2148,303.147 1295.9766,302.854 Q1296.4258,302.6782 1296.9336,302.1509 Q1297.2461,301.8384 1297.4219,301.7505 Q1297.5977,301.6626 1297.832,301.6626 Q1298.2227,301.6626 1298.5254,301.9653 Q1298.8281,302.2681 1298.8281,302.6782 Q1298.8281,303.0884 1298.418,303.5571 Q1297.832,304.2407 1296.8945,304.6313 Q1295.625,305.1587 1294.1016,305.1587 Q1292.3242,305.1587 1290.8984,304.4165 Q1289.7461,303.8306 1288.9355,302.5708 Q1288.125,301.311 1288.125,299.8071 L1288.125,298.4595 Q1288.125,296.897 1288.8574,295.5396 Q1289.5898,294.1821 1290.8789,293.4497 Q1292.168,292.7173 1293.6133,292.7173 Q1294.4727,292.7173 1295.2344,292.9224 Q1295.9961,293.1274 1296.6406,293.5376 Z " fill="#000000"/><ellipse cx="1325.3125" cy="297.9907" fill="#84BE84" rx="3.75" ry="3.75" style="stroke:#038048;stroke-width:1.25;"/><text fill="#000000" font-family="Consolas" font-size="20" lengthAdjust="spacing" textLength="101.25" x="1332.8125" y="306.8872">IssueNote</text><line style="stroke:#181818;stroke-width:0.625;" x1="1223.125" x2="1489.375" y1="318.6157" y2="318.6157"/><ellipse cx="1235.625" cy="337.1997" fill="none" rx="3.75" ry="3.75" style="stroke:#038048;stroke-width:1.25;"/><text fill="#000000" font-family="Consolas" font-size="20" lengthAdjust="spacing" textLength="236.25" x="1246.875" y="343.5962">SubmittedOn: DateTime</text><ellipse cx="1235.625" cy="360.6177" fill="none" rx="3.75" ry="3.75" style="stroke:#038048;stroke-width:1.25;"/><text fill="#000000" font-family="Consolas" font-size="20" lengthAdjust="spacing" textLength="180" x="1246.875" y="367.0142">SubmitterId: int</text><ellipse cx="1235.625" cy="384.0356" fill="none" rx="3.75" ry="3.75" style="stroke:#038048;stroke-width:1.25;"/><text fill="#000000" font-family="Consolas" font-size="20" lengthAdjust="spacing" textLength="135" x="1246.875" y="390.4321">Text: string</text><line style="stroke:#181818;stroke-width:0.625;" x1="1223.125" x2="1489.375" y1="398.8696" y2="398.8696"/></g><!--class Project--><g id="elem_Project"><rect codeLine="106" fill="#FFFFFF" height="200.5078" id="Project" rx="3.125" ry="3.125" style="stroke:#181818;stroke-width:0.625;" width="370" x="796.25" y="661.7407"/><ellipse cx="929.6875" cy="681.7407" fill="#ADD1B2" rx="13.75" ry="13.75" style="stroke:#181818;stroke-width:1.25;"/><path d="M932.8906,676.6626 Q933.0859,676.4087 933.3008,676.2817 Q933.5156,676.1548 933.7695,676.1548 Q934.2188,676.1548 934.4922,676.4575 Q934.7656,676.7603 934.7656,677.4829 L934.7656,679.1821 Q934.7656,679.9048 934.4922,680.2075 Q934.2188,680.5103 933.7695,680.5103 Q933.3789,680.5103 933.125,680.2954 Q932.8906,680.061 932.7734,679.4556 Q932.6953,679.0454 932.5,678.811 Q932.0898,678.3813 931.377,678.1177 Q930.6641,677.854 929.9414,677.854 Q929.043,677.854 928.291,678.2446 Q927.5391,678.6353 926.9629,679.5142 Q926.3867,680.3931 926.3867,681.604 L926.3867,682.8931 Q926.3867,684.3384 927.4316,685.3052 Q928.4766,686.272 930.3516,686.272 Q931.4648,686.272 932.2266,685.979 Q932.6758,685.8032 933.1836,685.2759 Q933.4961,684.9634 933.6719,684.8755 Q933.8477,684.7876 934.082,684.7876 Q934.4727,684.7876 934.7754,685.0903 Q935.0781,685.3931 935.0781,685.8032 Q935.0781,686.2134 934.668,686.6821 Q934.082,687.3657 933.1445,687.7563 Q931.875,688.2837 930.3516,688.2837 Q928.5742,688.2837 927.1484,687.5415 Q925.9961,686.9556 925.1855,685.6958 Q924.375,684.436 924.375,682.9321 L924.375,681.5845 Q924.375,680.022 925.1074,678.6646 Q925.8398,677.3071 927.1289,676.5747 Q928.418,675.8423 929.8633,675.8423 Q930.7227,675.8423 931.4844,676.0474 Q932.2461,676.2524 932.8906,676.6626 Z " fill="#000000"/><ellipse cx="961.5625" cy="681.1157" fill="#84BE84" rx="3.75" ry="3.75" style="stroke:#038048;stroke-width:1.25;"/><text fill="#000000" font-family="Consolas" font-size="20" lengthAdjust="spacing" textLength="78.75" x="969.0625" y="690.0122">Project</text><line style="stroke:#181818;stroke-width:0.625;" x1="797.5" x2="1165" y1="701.7407" y2="701.7407"/><ellipse cx="810" cy="720.3247" fill="none" rx="3.75" ry="3.75" style="stroke:#038048;stroke-width:1.25;"/><text fill="#000000" font-family="Consolas" font-size="20" lengthAdjust="spacing" textLength="157.5" x="821.25" y="726.7212">ProjectId: int</text><ellipse cx="810" cy="743.7427" fill="none" rx="3.75" ry="3.75" style="stroke:#038048;stroke-width:1.25;"/><text fill="#000000" font-family="Consolas" font-size="20" lengthAdjust="spacing" textLength="135" x="821.25" y="750.1392">Name: string</text><ellipse cx="810" cy="767.1606" fill="none" rx="3.75" ry="3.75" style="stroke:#038048;stroke-width:1.25;"/><text fill="#000000" font-family="Consolas" font-size="20" lengthAdjust="spacing" textLength="213.75" x="821.25" y="773.5571">Description: string</text><ellipse cx="810" cy="790.5786" fill="none" rx="3.75" ry="3.75" style="stroke:#038048;stroke-width:1.25;"/><text fill="#000000" font-family="Consolas" font-size="20" lengthAdjust="spacing" textLength="236.25" x="821.25" y="796.9751">SubmittedOn: DateTime</text><ellipse cx="810" cy="813.9966" fill="none" rx="3.75" ry="3.75" style="stroke:#038048;stroke-width:1.25;"/><text fill="#000000" font-family="Consolas" font-size="20" lengthAdjust="spacing" textLength="180" x="821.25" y="820.3931">SubmitterId: int</text><ellipse cx="810" cy="837.4146" fill="none" rx="3.75" ry="3.75" style="stroke:#038048;stroke-width:1.25;"/><text fill="#000000" font-family="Consolas" font-size="20" lengthAdjust="spacing" textLength="337.5" x="821.25" y="843.811">Issues: Dictionary&lt;int, Issue&gt;</text><line style="stroke:#181818;stroke-width:0.625;" x1="797.5" x2="1165" y1="852.2485" y2="852.2485"/></g><!--class User--><g id="elem_User"><rect codeLine="116" fill="#FFFFFF" height="177.0898" id="User" rx="3.125" ry="3.125" style="stroke:#181818;stroke-width:0.625;" width="257.5" x="1210" y="672.9907"/><ellipse cx="1304.0625" cy="692.9907" fill="#ADD1B2" rx="13.75" ry="13.75" style="stroke:#181818;stroke-width:1.25;"/><path d="M1307.2656,687.9126 Q1307.4609,687.6587 1307.6758,687.5317 Q1307.8906,687.4048 1308.1445,687.4048 Q1308.5938,687.4048 1308.8672,687.7075 Q1309.1406,688.0103 1309.1406,688.7329 L1309.1406,690.4321 Q1309.1406,691.1548 1308.8672,691.4575 Q1308.5938,691.7603 1308.1445,691.7603 Q1307.7539,691.7603 1307.5,691.5454 Q1307.2656,691.311 1307.1484,690.7056 Q1307.0703,690.2954 1306.875,690.061 Q1306.4648,689.6313 1305.752,689.3677 Q1305.0391,689.104 1304.3164,689.104 Q1303.418,689.104 1302.666,689.4946 Q1301.9141,689.8853 1301.3379,690.7642 Q1300.7617,691.6431 1300.7617,692.854 L1300.7617,694.1431 Q1300.7617,695.5884 1301.8066,696.5552 Q1302.8516,697.522 1304.7266,697.522 Q1305.8398,697.522 1306.6016,697.229 Q1307.0508,697.0532 1307.5586,696.5259 Q1307.8711,696.2134 1308.0469,696.1255 Q1308.2227,696.0376 1308.457,696.0376 Q1308.8477,696.0376 1309.1504,696.3403 Q1309.4531,696.6431 1309.4531,697.0532 Q1309.4531,697.4634 1309.043,697.9321 Q1308.457,698.6157 1307.5195,699.0063 Q1306.25,699.5337 1304.7266,699.5337 Q1302.9492,699.5337 1301.5234,698.7915 Q1300.3711,698.2056 1299.5605,696.9458 Q1298.75,695.686 1298.75,694.1821 L1298.75,692.8345 Q1298.75,691.272 1299.4824,689.9146 Q1300.2148,688.5571 1301.5039,687.8247 Q1302.793,687.0923 1304.2383,687.0923 Q1305.0977,687.0923 1305.8594,687.2974 Q1306.6211,687.5024 1307.2656,687.9126 Z " fill="#000000"/><ellipse cx="1335.9375" cy="692.3657" fill="#84BE84" rx="3.75" ry="3.75" style="stroke:#038048;stroke-width:1.25;"/><text fill="#000000" font-family="Consolas" font-size="20" lengthAdjust="spacing" textLength="45" x="1343.4375" y="701.2622">User</text><line style="stroke:#181818;stroke-width:0.625;" x1="1211.25" x2="1466.25" y1="712.9907" y2="712.9907"/><ellipse cx="1223.75" cy="731.5747" fill="none" rx="3.75" ry="3.75" style="stroke:#038048;stroke-width:1.25;"/><text fill="#000000" font-family="Consolas" font-size="20" lengthAdjust="spacing" textLength="123.75" x="1235" y="737.9712">UserId: int</text><ellipse cx="1223.75" cy="754.9927" fill="none" rx="3.75" ry="3.75" style="stroke:#038048;stroke-width:1.25;"/><text fill="#000000" font-family="Consolas" font-size="20" lengthAdjust="spacing" textLength="135" x="1235" y="761.3892">Name: string</text><ellipse cx="1223.75" cy="778.4106" fill="none" rx="3.75" ry="3.75" style="stroke:#038048;stroke-width:1.25;"/><text fill="#000000" font-family="Consolas" font-size="20" lengthAdjust="spacing" textLength="146.25" x="1235" y="784.8071">Email: string</text><ellipse cx="1223.75" cy="801.8286" fill="none" rx="3.75" ry="3.75" style="stroke:#038048;stroke-width:1.25;"/><text fill="#000000" font-family="Consolas" font-size="20" lengthAdjust="spacing" textLength="213.75" x="1235" y="808.2251">Description: string</text><ellipse cx="1223.75" cy="825.2466" fill="none" rx="3.75" ry="3.75" style="stroke:#038048;stroke-width:1.25;"/><text fill="#000000" font-family="Consolas" font-size="20" lengthAdjust="spacing" textLength="225" x="1235" y="831.6431">UserLevel: UserLevel</text><line style="stroke:#181818;stroke-width:0.625;" x1="1211.25" x2="1466.25" y1="840.0806" y2="840.0806"/></g><!--class TrackerManager--><g id="elem_TrackerManager"><rect codeLine="128" fill="#FFFFFF" height="486.5234" id="TrackerManager" rx="3.125" ry="3.125" style="stroke:#181818;stroke-width:0.625;" width="415" x="3255" y="100.4907"/><ellipse cx="3371.5625" cy="120.4907" fill="#ADD1B2" rx="13.75" ry="13.75" style="stroke:#181818;stroke-width:1.25;"/><path d="M3374.7656,115.4126 Q3374.9609,115.1587 3375.1758,115.0317 Q3375.3906,114.9048 3375.6445,114.9048 Q3376.0938,114.9048 3376.3672,115.2075 Q3376.6406,115.5103 3376.6406,116.2329 L3376.6406,117.9321 Q3376.6406,118.6548 3376.3672,118.9575 Q3376.0938,119.2603 3375.6445,119.2603 Q3375.2539,119.2603 3375,119.0454 Q3374.7656,118.811 3374.6484,118.2056 Q3374.5703,117.7954 3374.375,117.561 Q3373.9648,117.1313 3373.252,116.8677 Q3372.5391,116.604 3371.8164,116.604 Q3370.918,116.604 3370.166,116.9946 Q3369.4141,117.3853 3368.8379,118.2642 Q3368.2617,119.1431 3368.2617,120.354 L3368.2617,121.6431 Q3368.2617,123.0884 3369.3066,124.0552 Q3370.3516,125.022 3372.2266,125.022 Q3373.3398,125.022 3374.1016,124.729 Q3374.5508,124.5532 3375.0586,124.0259 Q3375.3711,123.7134 3375.5469,123.6255 Q3375.7227,123.5376 3375.957,123.5376 Q3376.3477,123.5376 3376.6504,123.8403 Q3376.9531,124.1431 3376.9531,124.5532 Q3376.9531,124.9634 3376.543,125.4321 Q3375.957,126.1157 3375.0195,126.5063 Q3373.75,127.0337 3372.2266,127.0337 Q3370.4492,127.0337 3369.0234,126.2915 Q3367.8711,125.7056 3367.0605,124.4458 Q3366.25,123.186 3366.25,121.6821 L3366.25,120.3345 Q3366.25,118.772 3366.9824,117.4146 Q3367.7148,116.0571 3369.0039,115.3247 Q3370.293,114.5923 3371.7383,114.5923 Q3372.5977,114.5923 3373.3594,114.7974 Q3374.1211,115.0024 3374.7656,115.4126 Z " fill="#000000"/><ellipse cx="3403.4375" cy="119.8657" fill="#84BE84" rx="3.75" ry="3.75" style="stroke:#038048;stroke-width:1.25;"/><text fill="#000000" font-family="Consolas" font-size="20" lengthAdjust="spacing" textLength="157.5" x="3410.9375" y="128.7622">TrackerManager</text><line style="stroke:#181818;stroke-width:0.625;" x1="3256.25" x2="3668.75" y1="140.4907" y2="140.4907"/><ellipse cx="3268.75" cy="159.0747" fill="none" rx="3.75" ry="3.75" style="stroke:#038048;stroke-width:1.25;"/><text fill="#000000" font-family="Consolas" font-size="20" lengthAdjust="spacing" textLength="382.5" x="3280" y="165.4712">Projects: Dictionary&lt;int, Project&gt;</text><ellipse cx="3268.75" cy="182.4927" fill="none" rx="3.75" ry="3.75" style="stroke:#038048;stroke-width:1.25;"/><text fill="#000000" font-family="Consolas" font-size="20" lengthAdjust="spacing" textLength="315" x="3280" y="188.8892">Users: Dictionary&lt;int, User&gt;</text><ellipse cx="3268.75" cy="234.3286" fill="#84BE84" rx="3.75" ry="3.75" style="stroke:#038048;stroke-width:1.25;"/><text fill="#000000" font-family="Consolas" font-size="20" lengthAdjust="spacing" textLength="180" x="3280" y="240.7251">AddUser() : void</text><ellipse cx="3268.75" cy="257.7466" fill="#84BE84" rx="3.75" ry="3.75" style="stroke:#038048;stroke-width:1.25;"/><text fill="#000000" font-family="Consolas" font-size="20" lengthAdjust="spacing" textLength="191.25" x="3280" y="264.1431">EditUser() : void</text><ellipse cx="3268.75" cy="281.1646" fill="#84BE84" rx="3.75" ry="3.75" style="stroke:#038048;stroke-width:1.25;"/><text fill="#000000" font-family="Consolas" font-size="20" lengthAdjust="spacing" textLength="213.75" x="3280" y="287.561">DeleteUser() : void</text><ellipse cx="3268.75" cy="304.5825" fill="#84BE84" rx="3.75" ry="3.75" style="stroke:#038048;stroke-width:1.25;"/><text fill="#000000" font-family="Consolas" font-size="20" lengthAdjust="spacing" textLength="202.5" x="3280" y="310.979">SaveUsers() : void</text><ellipse cx="3268.75" cy="328.0005" fill="#84BE84" rx="3.75" ry="3.75" style="stroke:#038048;stroke-width:1.25;"/><text fill="#000000" font-family="Consolas" font-size="20" lengthAdjust="spacing" textLength="202.5" x="3280" y="334.397">LoadUsers() : void</text><line style="stroke:#181818;stroke-width:1.25;" x1="3256.25" x2="3366.875" y1="209.0356" y2="209.0356"/><line style="stroke:#181818;stroke-width:1.25;" x1="3366.875" x2="3366.875" y1="208.4106" y2="208.4106"/><text fill="#000000" font-family="Consolas" font-size="20" lengthAdjust="spacing" textLength="168.75" x="3378.125" y="216.0571">User Management</text><line style="stroke:#181818;stroke-width:1.25;" x1="3558.125" x2="3558.125" y1="208.4106" y2="208.4106"/><line style="stroke:#181818;stroke-width:1.25;" x1="3558.125" x2="3668.75" y1="209.0356" y2="209.0356"/><ellipse cx="3268.75" cy="379.8364" fill="#84BE84" rx="3.75" ry="3.75" style="stroke:#038048;stroke-width:1.25;"/><text fill="#000000" font-family="Consolas" font-size="20" lengthAdjust="spacing" textLength="213.75" x="3280" y="386.2329">AddProject() : void</text><ellipse cx="3268.75" cy="403.2544" fill="#84BE84" rx="3.75" ry="3.75" style="stroke:#038048;stroke-width:1.25;"/><text fill="#000000" font-family="Consolas" font-size="20" lengthAdjust="spacing" textLength="225" x="3280" y="409.6509">EditProject() : void</text><ellipse cx="3268.75" cy="426.6724" fill="#84BE84" rx="3.75" ry="3.75" style="stroke:#038048;stroke-width:1.25;"/><text fill="#000000" font-family="Consolas" font-size="20" lengthAdjust="spacing" textLength="247.5" x="3280" y="433.0688">DeleteProject() : void</text><ellipse cx="3268.75" cy="450.0903" fill="#84BE84" rx="3.75" ry="3.75" style="stroke:#038048;stroke-width:1.25;"/><text fill="#000000" font-family="Consolas" font-size="20" lengthAdjust="spacing" textLength="236.25" x="3280" y="456.4868">SaveProjects() : void</text><ellipse cx="3268.75" cy="473.5083" fill="#84BE84" rx="3.75" ry="3.75" style="stroke:#038048;stroke-width:1.25;"/><text fill="#000000" font-family="Consolas" font-size="20" lengthAdjust="spacing" textLength="236.25" x="3280" y="479.9048">LoadProjects() : void</text><line style="stroke:#181818;stroke-width:1.25;" x1="3256.25" x2="3350" y1="354.5435" y2="354.5435"/><line style="stroke:#181818;stroke-width:1.25;" x1="3350" x2="3350" y1="353.9185" y2="353.9185"/><text fill="#000000" font-family="Consolas" font-size="20" lengthAdjust="spacing" textLength="202.5" x="3361.25" y="361.5649">Project Management</text><line style="stroke:#181818;stroke-width:1.25;" x1="3575" x2="3575" y1="353.9185" y2="353.9185"/><line style="stroke:#181818;stroke-width:1.25;" x1="3575" x2="3668.75" y1="354.5435" y2="354.5435"/><ellipse cx="3268.75" cy="525.3442" fill="#84BE84" rx="3.75" ry="3.75" style="stroke:#038048;stroke-width:1.25;"/><text fill="#000000" font-family="Consolas" font-size="20" lengthAdjust="spacing" textLength="191.25" x="3280" y="531.7407">AddIssue() : void</text><ellipse cx="3268.75" cy="548.7622" fill="#84BE84" rx="3.75" ry="3.75" style="stroke:#038048;stroke-width:1.25;"/><text fill="#000000" font-family="Consolas" font-size="20" lengthAdjust="spacing" textLength="202.5" x="3280" y="555.1587">EditIssue() : void</text><ellipse cx="3268.75" cy="572.1802" fill="#84BE84" rx="3.75" ry="3.75" style="stroke:#038048;stroke-width:1.25;"/><text fill="#000000" font-family="Consolas" font-size="20" lengthAdjust="spacing" textLength="225" x="3280" y="578.5767">DeleteIssue() : void</text><line style="stroke:#181818;stroke-width:1.25;" x1="3256.25" x2="3361.25" y1="500.0513" y2="500.0513"/><line style="stroke:#181818;stroke-width:1.25;" x1="3361.25" x2="3361.25" y1="499.4263" y2="499.4263"/><text fill="#000000" font-family="Consolas" font-size="20" lengthAdjust="spacing" textLength="180" x="3372.5" y="507.0728">Issue Management</text><line style="stroke:#181818;stroke-width:1.25;" x1="3563.75" x2="3563.75" y1="499.4263" y2="499.4263"/><line style="stroke:#181818;stroke-width:1.25;" x1="3563.75" x2="3668.75" y1="500.0513" y2="500.0513"/></g><!--class IssueControl--><g id="elem_IssueControl"><rect codeLine="155" fill="#FFFFFF" height="60" id="IssueControl" rx="3.125" ry="3.125" style="stroke:#181818;stroke-width:0.625;" width="188.75" x="2219.375" y="313.6157"/><ellipse cx="2238.125" cy="333.6157" fill="#ADD1B2" rx="13.75" ry="13.75" style="stroke:#181818;stroke-width:1.25;"/><path d="M2241.3281,328.5376 Q2241.5234,328.2837 2241.7383,328.1567 Q2241.9531,328.0298 2242.207,328.0298 Q2242.6563,328.0298 2242.9297,328.3325 Q2243.2031,328.6353 2243.2031,329.3579 L2243.2031,331.0571 Q2243.2031,331.7798 2242.9297,332.0825 Q2242.6563,332.3853 2242.207,332.3853 Q2241.8164,332.3853 2241.5625,332.1704 Q2241.3281,331.936 2241.2109,331.3306 Q2241.1328,330.9204 2240.9375,330.686 Q2240.5273,330.2563 2239.8145,329.9927 Q2239.1016,329.729 2238.3789,329.729 Q2237.4805,329.729 2236.7285,330.1196 Q2235.9766,330.5103 2235.4004,331.3892 Q2234.8242,332.2681 2234.8242,333.479 L2234.8242,334.7681 Q2234.8242,336.2134 2235.8691,337.1802 Q2236.9141,338.147 2238.7891,338.147 Q2239.9023,338.147 2240.6641,337.854 Q2241.1133,337.6782 2241.6211,337.1509 Q2241.9336,336.8384 2242.1094,336.7505 Q2242.2852,336.6626 2242.5195,336.6626 Q2242.9102,336.6626 2243.2129,336.9653 Q2243.5156,337.2681 2243.5156,337.6782 Q2243.5156,338.0884 2243.1055,338.5571 Q2242.5195,339.2407 2241.582,339.6313 Q2240.3125,340.1587 2238.7891,340.1587 Q2237.0117,340.1587 2235.5859,339.4165 Q2234.4336,338.8306 2233.623,337.5708 Q2232.8125,336.311 2232.8125,334.8071 L2232.8125,333.4595 Q2232.8125,331.897 2233.5449,330.5396 Q2234.2773,329.1821 2235.5664,328.4497 Q2236.8555,327.7173 2238.3008,327.7173 Q2239.1602,327.7173 2239.9219,327.9224 Q2240.6836,328.1274 2241.3281,328.5376 Z " fill="#000000"/><ellipse cx="2261.875" cy="332.9907" fill="#84BE84" rx="3.75" ry="3.75" style="stroke:#038048;stroke-width:1.25;"/><text fill="#000000" font-family="Consolas" font-size="20" lengthAdjust="spacing" textLength="135" x="2269.375" y="341.8872">IssueControl</text><line style="stroke:#181818;stroke-width:0.625;" x1="2220.625" x2="2406.875" y1="353.6157" y2="353.6157"/><line style="stroke:#181818;stroke-width:0.625;" x1="2220.625" x2="2406.875" y1="363.6157" y2="363.6157"/></g><!--class ProjectControl--><g id="elem_ProjectControl"><rect codeLine="160" fill="#FFFFFF" height="60" id="ProjectControl" rx="3.125" ry="3.125" style="stroke:#181818;stroke-width:0.625;" width="211.25" x="2451.875" y="313.6157"/><ellipse cx="2470.625" cy="333.6157" fill="#ADD1B2" rx="13.75" ry="13.75" style="stroke:#181818;stroke-width:1.25;"/><path d="M2473.8281,328.5376 Q2474.0234,328.2837 2474.2383,328.1567 Q2474.4531,328.0298 2474.707,328.0298 Q2475.1563,328.0298 2475.4297,328.3325 Q2475.7031,328.6353 2475.7031,329.3579 L2475.7031,331.0571 Q2475.7031,331.7798 2475.4297,332.0825 Q2475.1563,332.3853 2474.707,332.3853 Q2474.3164,332.3853 2474.0625,332.1704 Q2473.8281,331.936 2473.7109,331.3306 Q2473.6328,330.9204 2473.4375,330.686 Q2473.0273,330.2563 2472.3145,329.9927 Q2471.6016,329.729 2470.8789,329.729 Q2469.9805,329.729 2469.2285,330.1196 Q2468.4766,330.5103 2467.9004,331.3892 Q2467.3242,332.2681 2467.3242,333.479 L2467.3242,334.7681 Q2467.3242,336.2134 2468.3691,337.1802 Q2469.4141,338.147 2471.2891,338.147 Q2472.4023,338.147 2473.1641,337.854 Q2473.6133,337.6782 2474.1211,337.1509 Q2474.4336,336.8384 2474.6094,336.7505 Q2474.7852,336.6626 2475.0195,336.6626 Q2475.4102,336.6626 2475.7129,336.9653 Q2476.0156,337.2681 2476.0156,337.6782 Q2476.0156,338.0884 2475.6055,338.5571 Q2475.0195,339.2407 2474.082,339.6313 Q2472.8125,340.1587 2471.2891,340.1587 Q2469.5117,340.1587 2468.0859,339.4165 Q2466.9336,338.8306 2466.123,337.5708 Q2465.3125,336.311 2465.3125,334.8071 L2465.3125,333.4595 Q2465.3125,331.897 2466.0449,330.5396 Q2466.7773,329.1821 2468.0664,328.4497 Q2469.3555,327.7173 2470.8008,327.7173 Q2471.6602,327.7173 2472.4219,327.9224 Q2473.1836,328.1274 2473.8281,328.5376 Z " fill="#000000"/><ellipse cx="2494.375" cy="332.9907" fill="#84BE84" rx="3.75" ry="3.75" style="stroke:#038048;stroke-width:1.25;"/><text fill="#000000" font-family="Consolas" font-size="20" lengthAdjust="spacing" textLength="157.5" x="2501.875" y="341.8872">ProjectControl</text><line style="stroke:#181818;stroke-width:0.625;" x1="2453.125" x2="2661.875" y1="353.6157" y2="353.6157"/><line style="stroke:#181818;stroke-width:0.625;" x1="2453.125" x2="2661.875" y1="363.6157" y2="363.6157"/></g><!--class UserControl--><g id="elem_UserControl"><rect codeLine="165" fill="#FFFFFF" height="60" id="UserControl" rx="3.125" ry="3.125" style="stroke:#181818;stroke-width:0.625;" width="177.5" x="2707.5" y="313.6157"/><ellipse cx="2726.25" cy="333.6157" fill="#ADD1B2" rx="13.75" ry="13.75" style="stroke:#181818;stroke-width:1.25;"/><path d="M2729.4531,328.5376 Q2729.6484,328.2837 2729.8633,328.1567 Q2730.0781,328.0298 2730.332,328.0298 Q2730.7813,328.0298 2731.0547,328.3325 Q2731.3281,328.6353 2731.3281,329.3579 L2731.3281,331.0571 Q2731.3281,331.7798 2731.0547,332.0825 Q2730.7813,332.3853 2730.332,332.3853 Q2729.9414,332.3853 2729.6875,332.1704 Q2729.4531,331.936 2729.3359,331.3306 Q2729.2578,330.9204 2729.0625,330.686 Q2728.6523,330.2563 2727.9395,329.9927 Q2727.2266,329.729 2726.5039,329.729 Q2725.6055,329.729 2724.8535,330.1196 Q2724.1016,330.5103 2723.5254,331.3892 Q2722.9492,332.2681 2722.9492,333.479 L2722.9492,334.7681 Q2722.9492,336.2134 2723.9941,337.1802 Q2725.0391,338.147 2726.9141,338.147 Q2728.0273,338.147 2728.7891,337.854 Q2729.2383,337.6782 2729.7461,337.1509 Q2730.0586,336.8384 2730.2344,336.7505 Q2730.4102,336.6626 2730.6445,336.6626 Q2731.0352,336.6626 2731.3379,336.9653 Q2731.6406,337.2681 2731.6406,337.6782 Q2731.6406,338.0884 2731.2305,338.5571 Q2730.6445,339.2407 2729.707,339.6313 Q2728.4375,340.1587 2726.9141,340.1587 Q2725.1367,340.1587 2723.7109,339.4165 Q2722.5586,338.8306 2721.748,337.5708 Q2720.9375,336.311 2720.9375,334.8071 L2720.9375,333.4595 Q2720.9375,331.897 2721.6699,330.5396 Q2722.4023,329.1821 2723.6914,328.4497 Q2724.9805,327.7173 2726.4258,327.7173 Q2727.2852,327.7173 2728.0469,327.9224 Q2728.8086,328.1274 2729.4531,328.5376 Z " fill="#000000"/><ellipse cx="2750" cy="332.9907" fill="#84BE84" rx="3.75" ry="3.75" style="stroke:#038048;stroke-width:1.25;"/><text fill="#000000" font-family="Consolas" font-size="20" lengthAdjust="spacing" textLength="123.75" x="2757.5" y="341.8872">UserControl</text><line style="stroke:#181818;stroke-width:0.625;" x1="2708.75" x2="2883.75" y1="353.6157" y2="353.6157"/><line style="stroke:#181818;stroke-width:0.625;" x1="2708.75" x2="2883.75" y1="363.6157" y2="363.6157"/></g><!--class ProjectCollectionControl--><g id="elem_ProjectCollectionControl"><rect codeLine="170" fill="#FFFFFF" height="60" id="ProjectCollectionControl" rx="3.125" ry="3.125" style="stroke:#181818;stroke-width:0.625;" width="323.75" x="2151.875" y="731.7407"/><ellipse cx="2170.625" cy="751.7407" fill="#ADD1B2" rx="13.75" ry="13.75" style="stroke:#181818;stroke-width:1.25;"/><path d="M2173.8281,746.6626 Q2174.0234,746.4087 2174.2383,746.2817 Q2174.4531,746.1548 2174.707,746.1548 Q2175.1563,746.1548 2175.4297,746.4575 Q2175.7031,746.7603 2175.7031,747.4829 L2175.7031,749.1821 Q2175.7031,749.9048 2175.4297,750.2075 Q2175.1563,750.5103 2174.707,750.5103 Q2174.3164,750.5103 2174.0625,750.2954 Q2173.8281,750.061 2173.7109,749.4556 Q2173.6328,749.0454 2173.4375,748.811 Q2173.0273,748.3813 2172.3145,748.1177 Q2171.6016,747.854 2170.8789,747.854 Q2169.9805,747.854 2169.2285,748.2446 Q2168.4766,748.6353 2167.9004,749.5142 Q2167.3242,750.3931 2167.3242,751.604 L2167.3242,752.8931 Q2167.3242,754.3384 2168.3691,755.3052 Q2169.4141,756.272 2171.2891,756.272 Q2172.4023,756.272 2173.1641,755.979 Q2173.6133,755.8032 2174.1211,755.2759 Q2174.4336,754.9634 2174.6094,754.8755 Q2174.7852,754.7876 2175.0195,754.7876 Q2175.4102,754.7876 2175.7129,755.0903 Q2176.0156,755.3931 2176.0156,755.8032 Q2176.0156,756.2134 2175.6055,756.6821 Q2175.0195,757.3657 2174.082,757.7563 Q2172.8125,758.2837 2171.2891,758.2837 Q2169.5117,758.2837 2168.0859,757.5415 Q2166.9336,756.9556 2166.123,755.6958 Q2165.3125,754.436 2165.3125,752.9321 L2165.3125,751.5845 Q2165.3125,750.022 2166.0449,748.6646 Q2166.7773,747.3071 2168.0664,746.5747 Q2169.3555,745.8423 2170.8008,745.8423 Q2171.6602,745.8423 2172.4219,746.0474 Q2173.1836,746.2524 2173.8281,746.6626 Z " fill="#000000"/><ellipse cx="2194.375" cy="751.1157" fill="#84BE84" rx="3.75" ry="3.75" style="stroke:#038048;stroke-width:1.25;"/><text fill="#000000" font-family="Consolas" font-size="20" lengthAdjust="spacing" textLength="270" x="2201.875" y="760.0122">ProjectCollectionControl</text><line style="stroke:#181818;stroke-width:0.625;" x1="2153.125" x2="2474.375" y1="771.7407" y2="771.7407"/><line style="stroke:#181818;stroke-width:0.625;" x1="2153.125" x2="2474.375" y1="781.7407" y2="781.7407"/></g><!--class IssueCollectionControl--><g id="elem_IssueCollectionControl"><rect codeLine="175" fill="#FFFFFF" height="60" id="IssueCollectionControl" rx="3.125" ry="3.125" style="stroke:#181818;stroke-width:0.625;" width="301.25" x="2519.375" y="731.7407"/><ellipse cx="2538.125" cy="751.7407" fill="#ADD1B2" rx="13.75" ry="13.75" style="stroke:#181818;stroke-width:1.25;"/><path d="M2541.3281,746.6626 Q2541.5234,746.4087 2541.7383,746.2817 Q2541.9531,746.1548 2542.207,746.1548 Q2542.6563,746.1548 2542.9297,746.4575 Q2543.2031,746.7603 2543.2031,747.4829 L2543.2031,749.1821 Q2543.2031,749.9048 2542.9297,750.2075 Q2542.6563,750.5103 2542.207,750.5103 Q2541.8164,750.5103 2541.5625,750.2954 Q2541.3281,750.061 2541.2109,749.4556 Q2541.1328,749.0454 2540.9375,748.811 Q2540.5273,748.3813 2539.8145,748.1177 Q2539.1016,747.854 2538.3789,747.854 Q2537.4805,747.854 2536.7285,748.2446 Q2535.9766,748.6353 2535.4004,749.5142 Q2534.8242,750.3931 2534.8242,751.604 L2534.8242,752.8931 Q2534.8242,754.3384 2535.8691,755.3052 Q2536.9141,756.272 2538.7891,756.272 Q2539.9023,756.272 2540.6641,755.979 Q2541.1133,755.8032 2541.6211,755.2759 Q2541.9336,754.9634 2542.1094,754.8755 Q2542.2852,754.7876 2542.5195,754.7876 Q2542.9102,754.7876 2543.2129,755.0903 Q2543.5156,755.3931 2543.5156,755.8032 Q2543.5156,756.2134 2543.1055,756.6821 Q2542.5195,757.3657 2541.582,757.7563 Q2540.3125,758.2837 2538.7891,758.2837 Q2537.0117,758.2837 2535.5859,757.5415 Q2534.4336,756.9556 2533.623,755.6958 Q2532.8125,754.436 2532.8125,752.9321 L2532.8125,751.5845 Q2532.8125,750.022 2533.5449,748.6646 Q2534.2773,747.3071 2535.5664,746.5747 Q2536.8555,745.8423 2538.3008,745.8423 Q2539.1602,745.8423 2539.9219,746.0474 Q2540.6836,746.2524 2541.3281,746.6626 Z " fill="#000000"/><ellipse cx="2561.875" cy="751.1157" fill="#84BE84" rx="3.75" ry="3.75" style="stroke:#038048;stroke-width:1.25;"/><text fill="#000000" font-family="Consolas" font-size="20" lengthAdjust="spacing" textLength="247.5" x="2569.375" y="760.0122">IssueCollectionControl</text><line style="stroke:#181818;stroke-width:0.625;" x1="2520.625" x2="2819.375" y1="771.7407" y2="771.7407"/><line style="stroke:#181818;stroke-width:0.625;" x1="2520.625" x2="2819.375" y1="781.7407" y2="781.7407"/></g><!--class UserCollectionControl--><g id="elem_UserCollectionControl"><rect codeLine="180" fill="#FFFFFF" height="60" id="UserCollectionControl" rx="3.125" ry="3.125" style="stroke:#181818;stroke-width:0.625;" width="290" x="2865" y="731.7407"/><ellipse cx="2883.75" cy="751.7407" fill="#ADD1B2" rx="13.75" ry="13.75" style="stroke:#181818;stroke-width:1.25;"/><path d="M2886.9531,746.6626 Q2887.1484,746.4087 2887.3633,746.2817 Q2887.5781,746.1548 2887.832,746.1548 Q2888.2813,746.1548 2888.5547,746.4575 Q2888.8281,746.7603 2888.8281,747.4829 L2888.8281,749.1821 Q2888.8281,749.9048 2888.5547,750.2075 Q2888.2813,750.5103 2887.832,750.5103 Q2887.4414,750.5103 2887.1875,750.2954 Q2886.9531,750.061 2886.8359,749.4556 Q2886.7578,749.0454 2886.5625,748.811 Q2886.1523,748.3813 2885.4395,748.1177 Q2884.7266,747.854 2884.0039,747.854 Q2883.1055,747.854 2882.3535,748.2446 Q2881.6016,748.6353 2881.0254,749.5142 Q2880.4492,750.3931 2880.4492,751.604 L2880.4492,752.8931 Q2880.4492,754.3384 2881.4941,755.3052 Q2882.5391,756.272 2884.4141,756.272 Q2885.5273,756.272 2886.2891,755.979 Q2886.7383,755.8032 2887.2461,755.2759 Q2887.5586,754.9634 2887.7344,754.8755 Q2887.9102,754.7876 2888.1445,754.7876 Q2888.5352,754.7876 2888.8379,755.0903 Q2889.1406,755.3931 2889.1406,755.8032 Q2889.1406,756.2134 2888.7305,756.6821 Q2888.1445,757.3657 2887.207,757.7563 Q2885.9375,758.2837 2884.4141,758.2837 Q2882.6367,758.2837 2881.2109,757.5415 Q2880.0586,756.9556 2879.248,755.6958 Q2878.4375,754.436 2878.4375,752.9321 L2878.4375,751.5845 Q2878.4375,750.022 2879.1699,748.6646 Q2879.9023,747.3071 2881.1914,746.5747 Q2882.4805,745.8423 2883.9258,745.8423 Q2884.7852,745.8423 2885.5469,746.0474 Q2886.3086,746.2524 2886.9531,746.6626 Z " fill="#000000"/><ellipse cx="2907.5" cy="751.1157" fill="#84BE84" rx="3.75" ry="3.75" style="stroke:#038048;stroke-width:1.25;"/><text fill="#000000" font-family="Consolas" font-size="20" lengthAdjust="spacing" textLength="236.25" x="2915" y="760.0122">UserCollectionControl</text><line style="stroke:#181818;stroke-width:0.625;" x1="2866.25" x2="3153.75" y1="771.7407" y2="771.7407"/><line style="stroke:#181818;stroke-width:0.625;" x1="2866.25" x2="3153.75" y1="781.7407" y2="781.7407"/></g><!--class IssueDialog--><g id="elem_IssueDialog"><rect codeLine="188" fill="#FFFFFF" height="60" id="IssueDialog" rx="3.125" ry="3.125" style="stroke:#181818;stroke-width:0.625;" width="177.5" x="1591.25" y="313.6157"/><ellipse cx="1610" cy="333.6157" fill="#ADD1B2" rx="13.75" ry="13.75" style="stroke:#181818;stroke-width:1.25;"/><path d="M1613.2031,328.5376 Q1613.3984,328.2837 1613.6133,328.1567 Q1613.8281,328.0298 1614.082,328.0298 Q1614.5313,328.0298 1614.8047,328.3325 Q1615.0781,328.6353 1615.0781,329.3579 L1615.0781,331.0571 Q1615.0781,331.7798 1614.8047,332.0825 Q1614.5313,332.3853 1614.082,332.3853 Q1613.6914,332.3853 1613.4375,332.1704 Q1613.2031,331.936 1613.0859,331.3306 Q1613.0078,330.9204 1612.8125,330.686 Q1612.4023,330.2563 1611.6895,329.9927 Q1610.9766,329.729 1610.2539,329.729 Q1609.3555,329.729 1608.6035,330.1196 Q1607.8516,330.5103 1607.2754,331.3892 Q1606.6992,332.2681 1606.6992,333.479 L1606.6992,334.7681 Q1606.6992,336.2134 1607.7441,337.1802 Q1608.7891,338.147 1610.6641,338.147 Q1611.7773,338.147 1612.5391,337.854 Q1612.9883,337.6782 1613.4961,337.1509 Q1613.8086,336.8384 1613.9844,336.7505 Q1614.1602,336.6626 1614.3945,336.6626 Q1614.7852,336.6626 1615.0879,336.9653 Q1615.3906,337.2681 1615.3906,337.6782 Q1615.3906,338.0884 1614.9805,338.5571 Q1614.3945,339.2407 1613.457,339.6313 Q1612.1875,340.1587 1610.6641,340.1587 Q1608.8867,340.1587 1607.4609,339.4165 Q1606.3086,338.8306 1605.498,337.5708 Q1604.6875,336.311 1604.6875,334.8071 L1604.6875,333.4595 Q1604.6875,331.897 1605.4199,330.5396 Q1606.1523,329.1821 1607.4414,328.4497 Q1608.7305,327.7173 1610.1758,327.7173 Q1611.0352,327.7173 1611.7969,327.9224 Q1612.5586,328.1274 1613.2031,328.5376 Z " fill="#000000"/><ellipse cx="1633.75" cy="332.9907" fill="#84BE84" rx="3.75" ry="3.75" style="stroke:#038048;stroke-width:1.25;"/><text fill="#000000" font-family="Consolas" font-size="20" lengthAdjust="spacing" textLength="123.75" x="1641.25" y="341.8872">IssueDialog</text><line style="stroke:#181818;stroke-width:0.625;" x1="1592.5" x2="1767.5" y1="353.6157" y2="353.6157"/><line style="stroke:#181818;stroke-width:0.625;" x1="1592.5" x2="1767.5" y1="363.6157" y2="363.6157"/></g><!--class ProjectDialog--><g id="elem_ProjectDialog"><rect codeLine="193" fill="#FFFFFF" height="60" id="ProjectDialog" rx="3.125" ry="3.125" style="stroke:#181818;stroke-width:0.625;" width="200" x="1812.5" y="313.6157"/><ellipse cx="1831.25" cy="333.6157" fill="#ADD1B2" rx="13.75" ry="13.75" style="stroke:#181818;stroke-width:1.25;"/><path d="M1834.4531,328.5376 Q1834.6484,328.2837 1834.8633,328.1567 Q1835.0781,328.0298 1835.332,328.0298 Q1835.7813,328.0298 1836.0547,328.3325 Q1836.3281,328.6353 1836.3281,329.3579 L1836.3281,331.0571 Q1836.3281,331.7798 1836.0547,332.0825 Q1835.7813,332.3853 1835.332,332.3853 Q1834.9414,332.3853 1834.6875,332.1704 Q1834.4531,331.936 1834.3359,331.3306 Q1834.2578,330.9204 1834.0625,330.686 Q1833.6523,330.2563 1832.9395,329.9927 Q1832.2266,329.729 1831.5039,329.729 Q1830.6055,329.729 1829.8535,330.1196 Q1829.1016,330.5103 1828.5254,331.3892 Q1827.9492,332.2681 1827.9492,333.479 L1827.9492,334.7681 Q1827.9492,336.2134 1828.9941,337.1802 Q1830.0391,338.147 1831.9141,338.147 Q1833.0273,338.147 1833.7891,337.854 Q1834.2383,337.6782 1834.7461,337.1509 Q1835.0586,336.8384 1835.2344,336.7505 Q1835.4102,336.6626 1835.6445,336.6626 Q1836.0352,336.6626 1836.3379,336.9653 Q1836.6406,337.2681 1836.6406,337.6782 Q1836.6406,338.0884 1836.2305,338.5571 Q1835.6445,339.2407 1834.707,339.6313 Q1833.4375,340.1587 1831.9141,340.1587 Q1830.1367,340.1587 1828.7109,339.4165 Q1827.5586,338.8306 1826.748,337.5708 Q1825.9375,336.311 1825.9375,334.8071 L1825.9375,333.4595 Q1825.9375,331.897 1826.6699,330.5396 Q1827.4023,329.1821 1828.6914,328.4497 Q1829.9805,327.7173 1831.4258,327.7173 Q1832.2852,327.7173 1833.0469,327.9224 Q1833.8086,328.1274 1834.4531,328.5376 Z " fill="#000000"/><ellipse cx="1855" cy="332.9907" fill="#84BE84" rx="3.75" ry="3.75" style="stroke:#038048;stroke-width:1.25;"/><text fill="#000000" font-family="Consolas" font-size="20" lengthAdjust="spacing" textLength="146.25" x="1862.5" y="341.8872">ProjectDialog</text><line style="stroke:#181818;stroke-width:0.625;" x1="1813.75" x2="2011.25" y1="353.6157" y2="353.6157"/><line style="stroke:#181818;stroke-width:0.625;" x1="1813.75" x2="2011.25" y1="363.6157" y2="363.6157"/></g><!--class UserDialog--><g id="elem_UserDialog"><rect codeLine="198" fill="#FFFFFF" height="60" id="UserDialog" rx="3.125" ry="3.125" style="stroke:#181818;stroke-width:0.625;" width="166.25" x="1591.875" y="731.7407"/><ellipse cx="1610.625" cy="751.7407" fill="#ADD1B2" rx="13.75" ry="13.75" style="stroke:#181818;stroke-width:1.25;"/><path d="M1613.8281,746.6626 Q1614.0234,746.4087 1614.2383,746.2817 Q1614.4531,746.1548 1614.707,746.1548 Q1615.1563,746.1548 1615.4297,746.4575 Q1615.7031,746.7603 1615.7031,747.4829 L1615.7031,749.1821 Q1615.7031,749.9048 1615.4297,750.2075 Q1615.1563,750.5103 1614.707,750.5103 Q1614.3164,750.5103 1614.0625,750.2954 Q1613.8281,750.061 1613.7109,749.4556 Q1613.6328,749.0454 1613.4375,748.811 Q1613.0273,748.3813 1612.3145,748.1177 Q1611.6016,747.854 1610.8789,747.854 Q1609.9805,747.854 1609.2285,748.2446 Q1608.4766,748.6353 1607.9004,749.5142 Q1607.3242,750.3931 1607.3242,751.604 L1607.3242,752.8931 Q1607.3242,754.3384 1608.3691,755.3052 Q1609.4141,756.272 1611.2891,756.272 Q1612.4023,756.272 1613.1641,755.979 Q1613.6133,755.8032 1614.1211,755.2759 Q1614.4336,754.9634 1614.6094,754.8755 Q1614.7852,754.7876 1615.0195,754.7876 Q1615.4102,754.7876 1615.7129,755.0903 Q1616.0156,755.3931 1616.0156,755.8032 Q1616.0156,756.2134 1615.6055,756.6821 Q1615.0195,757.3657 1614.082,757.7563 Q1612.8125,758.2837 1611.2891,758.2837 Q1609.5117,758.2837 1608.0859,757.5415 Q1606.9336,756.9556 1606.123,755.6958 Q1605.3125,754.436 1605.3125,752.9321 L1605.3125,751.5845 Q1605.3125,750.022 1606.0449,748.6646 Q1606.7773,747.3071 1608.0664,746.5747 Q1609.3555,745.8423 1610.8008,745.8423 Q1611.6602,745.8423 1612.4219,746.0474 Q1613.1836,746.2524 1613.8281,746.6626 Z " fill="#000000"/><ellipse cx="1634.375" cy="751.1157" fill="#84BE84" rx="3.75" ry="3.75" style="stroke:#038048;stroke-width:1.25;"/><text fill="#000000" font-family="Consolas" font-size="20" lengthAdjust="spacing" textLength="112.5" x="1641.875" y="760.0122">UserDialog</text><line style="stroke:#181818;stroke-width:0.625;" x1="1593.125" x2="1756.875" y1="771.7407" y2="771.7407"/><line style="stroke:#181818;stroke-width:0.625;" x1="1593.125" x2="1756.875" y1="781.7407" y2="781.7407"/></g><!--class UserCollectionDialog--><g id="elem_UserCollectionDialog"><rect codeLine="203" fill="#FFFFFF" height="60" id="UserCollectionDialog" rx="3.125" ry="3.125" style="stroke:#181818;stroke-width:0.625;" width="278.75" x="1801.875" y="731.7407"/><ellipse cx="1820.625" cy="751.7407" fill="#ADD1B2" rx="13.75" ry="13.75" style="stroke:#181818;stroke-width:1.25;"/><path d="M1823.8281,746.6626 Q1824.0234,746.4087 1824.2383,746.2817 Q1824.4531,746.1548 1824.707,746.1548 Q1825.1563,746.1548 1825.4297,746.4575 Q1825.7031,746.7603 1825.7031,747.4829 L1825.7031,749.1821 Q1825.7031,749.9048 1825.4297,750.2075 Q1825.1563,750.5103 1824.707,750.5103 Q1824.3164,750.5103 1824.0625,750.2954 Q1823.8281,750.061 1823.7109,749.4556 Q1823.6328,749.0454 1823.4375,748.811 Q1823.0273,748.3813 1822.3145,748.1177 Q1821.6016,747.854 1820.8789,747.854 Q1819.9805,747.854 1819.2285,748.2446 Q1818.4766,748.6353 1817.9004,749.5142 Q1817.3242,750.3931 1817.3242,751.604 L1817.3242,752.8931 Q1817.3242,754.3384 1818.3691,755.3052 Q1819.4141,756.272 1821.2891,756.272 Q1822.4023,756.272 1823.1641,755.979 Q1823.6133,755.8032 1824.1211,755.2759 Q1824.4336,754.9634 1824.6094,754.8755 Q1824.7852,754.7876 1825.0195,754.7876 Q1825.4102,754.7876 1825.7129,755.0903 Q1826.0156,755.3931 1826.0156,755.8032 Q1826.0156,756.2134 1825.6055,756.6821 Q1825.0195,757.3657 1824.082,757.7563 Q1822.8125,758.2837 1821.2891,758.2837 Q1819.5117,758.2837 1818.0859,757.5415 Q1816.9336,756.9556 1816.123,755.6958 Q1815.3125,754.436 1815.3125,752.9321 L1815.3125,751.5845 Q1815.3125,750.022 1816.0449,748.6646 Q1816.7773,747.3071 1818.0664,746.5747 Q1819.3555,745.8423 1820.8008,745.8423 Q1821.6602,745.8423 1822.4219,746.0474 Q1823.1836,746.2524 1823.8281,746.6626 Z " fill="#000000"/><ellipse cx="1844.375" cy="751.1157" fill="#84BE84" rx="3.75" ry="3.75" style="stroke:#038048;stroke-width:1.25;"/><text fill="#000000" font-family="Consolas" font-size="20" lengthAdjust="spacing" textLength="225" x="1851.875" y="760.0122">UserCollectionDialog</text><line style="stroke:#181818;stroke-width:0.625;" x1="1803.125" x2="2079.375" y1="771.7407" y2="771.7407"/><line style="stroke:#181818;stroke-width:0.625;" x1="1803.125" x2="2079.375" y1="781.7407" y2="781.7407"/></g><!--SRC=[fLPBSzis4BxpL-2MTjhED3tqmCaaeqXswnd5oLXIUuQ55RKn2B00ADdDwBzt2LBYKYJLokN15lRRnxSlaFu9JI6Tp8M2ZInrkBKctCiSnDGQRxNqYHzIMU3V8Dx-oi1P3IxXEKmqPYO74uI6JM0wN-JwIMQmnA3XJEcDsA82iR4sFDfd7hH0yVQNdvbaZXlGQ60Hd0oGlGZYYOefL61uAK1O5xQM0LFAntya4fcpfL5JgwqJ-oq6IDumS-8ZWXKEisqG2Xsi0rgJ9A7YBJwMsPmiKd5ZoXo80c5UIADgz-2JfAZpx6Watn91pmz0Cl75eNKONgAe1Y9uRmsqfxdTSyZbKhVdtubTUrgvZ4hPdk_o71HIUQBeaB3O2zZ1KEnRaA5qBFpIuGvvoEKUv5Dx_8J6EdQKN_bnwgJVzgC_GE6iAjVuY7g0nCey6RithM1XSmYOKrLFeWUgjStRyqJlvOllXxhplgGXeQnyhyx0AZlndaOH58i0D58xBfbgwvjpFqPKB-ECdCNvN03BvHQVkS-LSQTYQE3o3JxBZkZUJhVIP1JfhvBcaJdvavQH_3RC-8JPhpItm-dFQ0IqBVBEo3o01kbPKB8zakZalFBWvfM7SxT_8Ep1SOy5RI2ND86vQA9oDEYhNMx6vv0SsXMQsLoYEIxFkjgmkkZdmQFmJgK2UL9D6NhoHVcOOo1kFUGu3KlRG1_wLkgpISMCjcj9aydsLVgmAXJ9LGj_u6JghK-x-r-xRhOoxUxdiOvyPzB19JgsZDgTzaQ_OP_dqf4v5HjDnhlYrmwBQe3xu290y4jx30bzZObIMDbAVMSsje_Vsm34QKvDVXU9LOBtdRbYVQt0yzx-Izt7crczZJg4kW6RwJWFDpOqrNlnskgzbdci1LLjXl7bGtrxH_YFTOs6YbTjPUyszGEUXxEueJNJLoPtkWZIipkXiy6VfA5_yQxfRF7IaGAu6dOZFHYeG8Eyx_8OKAp4hTPFz4GH8nI5dK6k5BxxNgHYPv7TiZSquIFGZAxD02FWGkuYv0UmkPLg18jScpmlqcrqHXYFepNfSRpYVUp02FLnEBAFStgHUzGOOJw6rRm7qCx4_LPYCsf72NtC1cTrxqN8xfr6vOHzIqu_3ycvHPDytqQmvu9zrVTN6v-2Qrr_cLv5lKdsLROrxVzaoXoSNkNqCMcpIpseDQvgGS_aYWxy7zks39T8nx-rkqFo3m00]--></g></svg>