<?xml version="1.0" encoding="us-ascii" standalone="no"?><svg xmlns="http://www.w3.org/2000/svg" xmlns:xlink="http://www.w3.org/1999/xlink" contentStyleType="text/css" height="1025px" preserveAspectRatio="none" style="width:1166px;height:1025px;background:#FFFFFF;" version="1.1" viewBox="0 0 1166 1025" width="1166.25px" zoomAndPan="magnify"><defs/><g><text fill="#000000" font-family="Consolas" font-size="17.5" font-weight="bold" lengthAdjust="spacing" textLength="370" x="389.6875" y="29.9829">BugLite: DomaEnumerations and Classes</text><!--class Priority--><g id="elem_Priority"><rect codeLine="14" fill="#FFFFFF" height="200.5078" id="Priority" rx="3.125" ry="3.125" style="stroke:#181818;stroke-width:0.625;" width="143.75" x="71.25" y="55.4907"/><ellipse cx="90" cy="75.4907" fill="#EB937F" rx="13.75" ry="13.75" style="stroke:#181818;stroke-width:1.25;"/><path d="M88.9453,76.1743 L88.9453,79.104 L94.0625,79.104 L94.0625,78.0298 Q94.0625,77.3071 94.3359,76.9946 Q94.6094,76.6821 95.0586,76.6821 Q95.5078,76.6821 95.7813,76.9946 Q96.0547,77.3071 96.0547,78.0298 L96.0547,81.1157 L86.6406,81.1157 Q85.918,81.1157 85.6055,80.8325 Q85.293,80.5493 85.293,80.1001 Q85.293,79.6704 85.6055,79.3872 Q85.918,79.104 86.6406,79.104 L86.9531,79.104 L86.9531,71.272 L86.6406,71.272 Q85.918,71.272 85.6055,70.9985 Q85.293,70.7251 85.293,70.2759 Q85.293,69.8267 85.6055,69.5435 Q85.918,69.2603 86.6406,69.2603 L95.625,69.2798 L95.625,72.3267 Q95.625,73.0298 95.3516,73.3423 Q95.0781,73.6548 94.6289,73.6548 Q94.1797,73.6548 93.8965,73.3521 Q93.6133,73.0493 93.6133,72.3267 L93.6133,71.272 L88.9453,71.272 L88.9453,74.1626 L90.7031,74.1626 Q90.7031,73.3813 90.8594,73.1665 Q91.1523,72.6782 91.7188,72.6782 Q92.1484,72.6782 92.4316,72.9907 Q92.7148,73.3032 92.7148,74.0259 L92.7148,76.3306 Q92.7148,76.9751 92.5586,77.2095 Q92.2461,77.6587 91.7188,77.6587 Q91.1523,77.6587 90.8594,77.1899 Q90.7031,76.9556 90.7031,76.1743 L88.9453,76.1743 Z " fill="#000000"/><ellipse cx="113.75" cy="74.8657" fill="#84BE84" rx="3.75" ry="3.75" style="stroke:#038048;stroke-width:1.25;"/><text fill="#000000" font-family="Consolas" font-size="20" lengthAdjust="spacing" textLength="90" x="121.25" y="83.7622">Priority</text><line style="stroke:#181818;stroke-width:0.625;" x1="72.5" x2="213.75" y1="95.4907" y2="95.4907"/><ellipse cx="85" cy="114.0747" fill="none" rx="3.75" ry="3.75" style="stroke:#038048;stroke-width:1.25;"/><text fill="#000000" font-family="Consolas" font-size="20" lengthAdjust="spacing" textLength="45" x="96.25" y="120.4712">None</text><ellipse cx="85" cy="137.4927" fill="none" rx="3.75" ry="3.75" style="stroke:#038048;stroke-width:1.25;"/><text fill="#000000" font-family="Consolas" font-size="20" lengthAdjust="spacing" textLength="33.75" x="96.25" y="143.8892">Low</text><ellipse cx="85" cy="160.9106" fill="none" rx="3.75" ry="3.75" style="stroke:#038048;stroke-width:1.25;"/><text fill="#000000" font-family="Consolas" font-size="20" lengthAdjust="spacing" textLength="67.5" x="96.25" y="167.3071">Normal</text><ellipse cx="85" cy="184.3286" fill="none" rx="3.75" ry="3.75" style="stroke:#038048;stroke-width:1.25;"/><text fill="#000000" font-family="Consolas" font-size="20" lengthAdjust="spacing" textLength="45" x="96.25" y="190.7251">High</text><ellipse cx="85" cy="207.7466" fill="none" rx="3.75" ry="3.75" style="stroke:#038048;stroke-width:1.25;"/><text fill="#000000" font-family="Consolas" font-size="20" lengthAdjust="spacing" textLength="67.5" x="96.25" y="214.1431">Urgent</text><ellipse cx="85" cy="231.1646" fill="none" rx="3.75" ry="3.75" style="stroke:#038048;stroke-width:1.25;"/><text fill="#000000" font-family="Consolas" font-size="20" lengthAdjust="spacing" textLength="101.25" x="96.25" y="237.561">Immediate</text><line style="stroke:#181818;stroke-width:0.625;" x1="72.5" x2="213.75" y1="245.9985" y2="245.9985"/></g><!--class Severity--><g id="elem_Severity"><rect codeLine="24" fill="#FFFFFF" height="200.5078" id="Severity" rx="3.125" ry="3.125" style="stroke:#181818;stroke-width:0.625;" width="143.75" x="258.75" y="55.4907"/><ellipse cx="277.5" cy="75.4907" fill="#EB937F" rx="13.75" ry="13.75" style="stroke:#181818;stroke-width:1.25;"/><path d="M276.4453,76.1743 L276.4453,79.104 L281.5625,79.104 L281.5625,78.0298 Q281.5625,77.3071 281.8359,76.9946 Q282.1094,76.6821 282.5586,76.6821 Q283.0078,76.6821 283.2813,76.9946 Q283.5547,77.3071 283.5547,78.0298 L283.5547,81.1157 L274.1406,81.1157 Q273.418,81.1157 273.1055,80.8325 Q272.793,80.5493 272.793,80.1001 Q272.793,79.6704 273.1055,79.3872 Q273.418,79.104 274.1406,79.104 L274.4531,79.104 L274.4531,71.272 L274.1406,71.272 Q273.418,71.272 273.1055,70.9985 Q272.793,70.7251 272.793,70.2759 Q272.793,69.8267 273.1055,69.5435 Q273.418,69.2603 274.1406,69.2603 L283.125,69.2798 L283.125,72.3267 Q283.125,73.0298 282.8516,73.3423 Q282.5781,73.6548 282.1289,73.6548 Q281.6797,73.6548 281.3965,73.3521 Q281.1133,73.0493 281.1133,72.3267 L281.1133,71.272 L276.4453,71.272 L276.4453,74.1626 L278.2031,74.1626 Q278.2031,73.3813 278.3594,73.1665 Q278.6523,72.6782 279.2188,72.6782 Q279.6484,72.6782 279.9316,72.9907 Q280.2148,73.3032 280.2148,74.0259 L280.2148,76.3306 Q280.2148,76.9751 280.0586,77.2095 Q279.7461,77.6587 279.2188,77.6587 Q278.6523,77.6587 278.3594,77.1899 Q278.2031,76.9556 278.2031,76.1743 L276.4453,76.1743 Z " fill="#000000"/><ellipse cx="301.25" cy="74.8657" fill="#84BE84" rx="3.75" ry="3.75" style="stroke:#038048;stroke-width:1.25;"/><text fill="#000000" font-family="Consolas" font-size="20" lengthAdjust="spacing" textLength="90" x="308.75" y="83.7622">Severity</text><line style="stroke:#181818;stroke-width:0.625;" x1="260" x2="401.25" y1="95.4907" y2="95.4907"/><ellipse cx="272.5" cy="114.0747" fill="none" rx="3.75" ry="3.75" style="stroke:#038048;stroke-width:1.25;"/><text fill="#000000" font-family="Consolas" font-size="20" lengthAdjust="spacing" textLength="78.75" x="283.75" y="120.4712">Feature</text><ellipse cx="272.5" cy="137.4927" fill="none" rx="3.75" ry="3.75" style="stroke:#038048;stroke-width:1.25;"/><text fill="#000000" font-family="Consolas" font-size="20" lengthAdjust="spacing" textLength="78.75" x="283.75" y="143.8892">Trivial</text><ellipse cx="272.5" cy="160.9106" fill="none" rx="3.75" ry="3.75" style="stroke:#038048;stroke-width:1.25;"/><text fill="#000000" font-family="Consolas" font-size="20" lengthAdjust="spacing" textLength="56.25" x="283.75" y="167.3071">Tweak</text><ellipse cx="272.5" cy="184.3286" fill="none" rx="3.75" ry="3.75" style="stroke:#038048;stroke-width:1.25;"/><text fill="#000000" font-family="Consolas" font-size="20" lengthAdjust="spacing" textLength="56.25" x="283.75" y="190.7251">Minor</text><ellipse cx="272.5" cy="207.7466" fill="none" rx="3.75" ry="3.75" style="stroke:#038048;stroke-width:1.25;"/><text fill="#000000" font-family="Consolas" font-size="20" lengthAdjust="spacing" textLength="56.25" x="283.75" y="214.1431">Major</text><ellipse cx="272.5" cy="231.1646" fill="none" rx="3.75" ry="3.75" style="stroke:#038048;stroke-width:1.25;"/><text fill="#000000" font-family="Consolas" font-size="20" lengthAdjust="spacing" textLength="56.25" x="283.75" y="237.561">Crash</text><line style="stroke:#181818;stroke-width:0.625;" x1="260" x2="401.25" y1="245.9985" y2="245.9985"/></g><!--class Reproducibility--><g id="elem_Reproducibility"><rect codeLine="34" fill="#FFFFFF" height="153.6719" id="Reproducibility" rx="3.125" ry="3.125" style="stroke:#181818;stroke-width:0.625;" width="222.5" x="446.875" y="78.6157"/><ellipse cx="465.625" cy="98.6157" fill="#EB937F" rx="13.75" ry="13.75" style="stroke:#181818;stroke-width:1.25;"/><path d="M464.5703,99.2993 L464.5703,102.229 L469.6875,102.229 L469.6875,101.1548 Q469.6875,100.4321 469.9609,100.1196 Q470.2344,99.8071 470.6836,99.8071 Q471.1328,99.8071 471.4063,100.1196 Q471.6797,100.4321 471.6797,101.1548 L471.6797,104.2407 L462.2656,104.2407 Q461.543,104.2407 461.2305,103.9575 Q460.918,103.6743 460.918,103.2251 Q460.918,102.7954 461.2305,102.5122 Q461.543,102.229 462.2656,102.229 L462.5781,102.229 L462.5781,94.397 L462.2656,94.397 Q461.543,94.397 461.2305,94.1235 Q460.918,93.8501 460.918,93.4009 Q460.918,92.9517 461.2305,92.6685 Q461.543,92.3853 462.2656,92.3853 L471.25,92.4048 L471.25,95.4517 Q471.25,96.1548 470.9766,96.4673 Q470.7031,96.7798 470.2539,96.7798 Q469.8047,96.7798 469.5215,96.4771 Q469.2383,96.1743 469.2383,95.4517 L469.2383,94.397 L464.5703,94.397 L464.5703,97.2876 L466.3281,97.2876 Q466.3281,96.5063 466.4844,96.2915 Q466.7773,95.8032 467.3438,95.8032 Q467.7734,95.8032 468.0566,96.1157 Q468.3398,96.4282 468.3398,97.1509 L468.3398,99.4556 Q468.3398,100.1001 468.1836,100.3345 Q467.8711,100.7837 467.3438,100.7837 Q466.7773,100.7837 466.4844,100.3149 Q466.3281,100.0806 466.3281,99.2993 L464.5703,99.2993 Z " fill="#000000"/><ellipse cx="489.375" cy="97.9907" fill="#84BE84" rx="3.75" ry="3.75" style="stroke:#038048;stroke-width:1.25;"/><text fill="#000000" font-family="Consolas" font-size="20" lengthAdjust="spacing" textLength="168.75" x="496.875" y="106.8872">Reproducibility</text><line style="stroke:#181818;stroke-width:0.625;" x1="448.125" x2="668.125" y1="118.6157" y2="118.6157"/><ellipse cx="460.625" cy="137.1997" fill="none" rx="3.75" ry="3.75" style="stroke:#038048;stroke-width:1.25;"/><text fill="#000000" font-family="Consolas" font-size="20" lengthAdjust="spacing" textLength="78.75" x="471.875" y="143.5962">Unknown</text><ellipse cx="460.625" cy="160.6177" fill="none" rx="3.75" ry="3.75" style="stroke:#038048;stroke-width:1.25;"/><text fill="#000000" font-family="Consolas" font-size="20" lengthAdjust="spacing" textLength="101.25" x="471.875" y="167.0142">Sometimes</text><ellipse cx="460.625" cy="184.0356" fill="none" rx="3.75" ry="3.75" style="stroke:#038048;stroke-width:1.25;"/><text fill="#000000" font-family="Consolas" font-size="20" lengthAdjust="spacing" textLength="67.5" x="471.875" y="190.4321">Random</text><ellipse cx="460.625" cy="207.4536" fill="none" rx="3.75" ry="3.75" style="stroke:#038048;stroke-width:1.25;"/><text fill="#000000" font-family="Consolas" font-size="20" lengthAdjust="spacing" textLength="67.5" x="471.875" y="213.8501">Always</text><line style="stroke:#181818;stroke-width:0.625;" x1="448.125" x2="668.125" y1="222.2876" y2="222.2876"/></g><!--class IssueStatus--><g id="elem_IssueStatus"><rect codeLine="42" fill="#FFFFFF" height="153.6719" id="IssueStatus" rx="3.125" ry="3.125" style="stroke:#181818;stroke-width:0.625;" width="177.5" x="713.125" y="78.6157"/><ellipse cx="731.875" cy="98.6157" fill="#EB937F" rx="13.75" ry="13.75" style="stroke:#181818;stroke-width:1.25;"/><path d="M730.8203,99.2993 L730.8203,102.229 L735.9375,102.229 L735.9375,101.1548 Q735.9375,100.4321 736.2109,100.1196 Q736.4844,99.8071 736.9336,99.8071 Q737.3828,99.8071 737.6563,100.1196 Q737.9297,100.4321 737.9297,101.1548 L737.9297,104.2407 L728.5156,104.2407 Q727.793,104.2407 727.4805,103.9575 Q727.168,103.6743 727.168,103.2251 Q727.168,102.7954 727.4805,102.5122 Q727.793,102.229 728.5156,102.229 L728.8281,102.229 L728.8281,94.397 L728.5156,94.397 Q727.793,94.397 727.4805,94.1235 Q727.168,93.8501 727.168,93.4009 Q727.168,92.9517 727.4805,92.6685 Q727.793,92.3853 728.5156,92.3853 L737.5,92.4048 L737.5,95.4517 Q737.5,96.1548 737.2266,96.4673 Q736.9531,96.7798 736.5039,96.7798 Q736.0547,96.7798 735.7715,96.4771 Q735.4883,96.1743 735.4883,95.4517 L735.4883,94.397 L730.8203,94.397 L730.8203,97.2876 L732.5781,97.2876 Q732.5781,96.5063 732.7344,96.2915 Q733.0273,95.8032 733.5938,95.8032 Q734.0234,95.8032 734.3066,96.1157 Q734.5898,96.4282 734.5898,97.1509 L734.5898,99.4556 Q734.5898,100.1001 734.4336,100.3345 Q734.1211,100.7837 733.5938,100.7837 Q733.0273,100.7837 732.7344,100.3149 Q732.5781,100.0806 732.5781,99.2993 L730.8203,99.2993 Z " fill="#000000"/><ellipse cx="755.625" cy="97.9907" fill="#84BE84" rx="3.75" ry="3.75" style="stroke:#038048;stroke-width:1.25;"/><text fill="#000000" font-family="Consolas" font-size="20" lengthAdjust="spacing" textLength="123.75" x="763.125" y="106.8872">IssueStatus</text><line style="stroke:#181818;stroke-width:0.625;" x1="714.375" x2="889.375" y1="118.6157" y2="118.6157"/><ellipse cx="726.875" cy="137.1997" fill="none" rx="3.75" ry="3.75" style="stroke:#038048;stroke-width:1.25;"/><text fill="#000000" font-family="Consolas" font-size="20" lengthAdjust="spacing" textLength="33.75" x="738.125" y="143.5962">New</text><ellipse cx="726.875" cy="160.6177" fill="none" rx="3.75" ry="3.75" style="stroke:#038048;stroke-width:1.25;"/><text fill="#000000" font-family="Consolas" font-size="20" lengthAdjust="spacing" textLength="90" x="738.125" y="167.0142">Assigned</text><ellipse cx="726.875" cy="184.0356" fill="none" rx="3.75" ry="3.75" style="stroke:#038048;stroke-width:1.25;"/><text fill="#000000" font-family="Consolas" font-size="20" lengthAdjust="spacing" textLength="90" x="738.125" y="190.4321">Resolved</text><ellipse cx="726.875" cy="207.4536" fill="none" rx="3.75" ry="3.75" style="stroke:#038048;stroke-width:1.25;"/><text fill="#000000" font-family="Consolas" font-size="20" lengthAdjust="spacing" textLength="67.5" x="738.125" y="213.8501">Closed</text><line style="stroke:#181818;stroke-width:0.625;" x1="714.375" x2="889.375" y1="222.2876" y2="222.2876"/></g><!--class IssueResolution--><g id="elem_IssueResolution"><rect codeLine="50" fill="#FFFFFF" height="200.5078" id="IssueResolution" rx="3.125" ry="3.125" style="stroke:#181818;stroke-width:0.625;" width="222.5" x="31.875" y="436.1157"/><ellipse cx="50.625" cy="456.1157" fill="#EB937F" rx="13.75" ry="13.75" style="stroke:#181818;stroke-width:1.25;"/><path d="M49.5703,456.7993 L49.5703,459.729 L54.6875,459.729 L54.6875,458.6548 Q54.6875,457.9321 54.9609,457.6196 Q55.2344,457.3071 55.6836,457.3071 Q56.1328,457.3071 56.4063,457.6196 Q56.6797,457.9321 56.6797,458.6548 L56.6797,461.7407 L47.2656,461.7407 Q46.543,461.7407 46.2305,461.4575 Q45.918,461.1743 45.918,460.7251 Q45.918,460.2954 46.2305,460.0122 Q46.543,459.729 47.2656,459.729 L47.5781,459.729 L47.5781,451.897 L47.2656,451.897 Q46.543,451.897 46.2305,451.6235 Q45.918,451.3501 45.918,450.9009 Q45.918,450.4517 46.2305,450.1685 Q46.543,449.8853 47.2656,449.8853 L56.25,449.9048 L56.25,452.9517 Q56.25,453.6548 55.9766,453.9673 Q55.7031,454.2798 55.2539,454.2798 Q54.8047,454.2798 54.5215,453.9771 Q54.2383,453.6743 54.2383,452.9517 L54.2383,451.897 L49.5703,451.897 L49.5703,454.7876 L51.3281,454.7876 Q51.3281,454.0063 51.4844,453.7915 Q51.7773,453.3032 52.3438,453.3032 Q52.7734,453.3032 53.0566,453.6157 Q53.3398,453.9282 53.3398,454.6509 L53.3398,456.9556 Q53.3398,457.6001 53.1836,457.8345 Q52.8711,458.2837 52.3438,458.2837 Q51.7773,458.2837 51.4844,457.8149 Q51.3281,457.5806 51.3281,456.7993 L49.5703,456.7993 Z " fill="#000000"/><ellipse cx="74.375" cy="455.4907" fill="#84BE84" rx="3.75" ry="3.75" style="stroke:#038048;stroke-width:1.25;"/><text fill="#000000" font-family="Consolas" font-size="20" lengthAdjust="spacing" textLength="168.75" x="81.875" y="464.3872">IssueResolution</text><line style="stroke:#181818;stroke-width:0.625;" x1="33.125" x2="253.125" y1="476.1157" y2="476.1157"/><ellipse cx="45.625" cy="494.6997" fill="none" rx="3.75" ry="3.75" style="stroke:#038048;stroke-width:1.25;"/><text fill="#000000" font-family="Consolas" font-size="20" lengthAdjust="spacing" textLength="45" x="56.875" y="501.0962">Open</text><ellipse cx="45.625" cy="518.1177" fill="none" rx="3.75" ry="3.75" style="stroke:#038048;stroke-width:1.25;"/><text fill="#000000" font-family="Consolas" font-size="20" lengthAdjust="spacing" textLength="56.25" x="56.875" y="524.5142">Fixed</text><ellipse cx="45.625" cy="541.5356" fill="none" rx="3.75" ry="3.75" style="stroke:#038048;stroke-width:1.25;"/><text fill="#000000" font-family="Consolas" font-size="20" lengthAdjust="spacing" textLength="157.5" x="56.875" y="547.9321">Unreproducible</text><ellipse cx="45.625" cy="564.9536" fill="none" rx="3.75" ry="3.75" style="stroke:#038048;stroke-width:1.25;"/><text fill="#000000" font-family="Consolas" font-size="20" lengthAdjust="spacing" textLength="101.25" x="56.875" y="571.3501">Unfixable</text><ellipse cx="45.625" cy="588.3716" fill="none" rx="3.75" ry="3.75" style="stroke:#038048;stroke-width:1.25;"/><text fill="#000000" font-family="Consolas" font-size="20" lengthAdjust="spacing" textLength="180" x="56.875" y="594.7681">NoChangeRequired</text><ellipse cx="45.625" cy="611.7896" fill="none" rx="3.75" ry="3.75" style="stroke:#038048;stroke-width:1.25;"/><text fill="#000000" font-family="Consolas" font-size="20" lengthAdjust="spacing" textLength="78.75" x="56.875" y="618.186">WontFix</text><line style="stroke:#181818;stroke-width:0.625;" x1="33.125" x2="253.125" y1="626.6235" y2="626.6235"/></g><!--class ProjectStatus--><g id="elem_ProjectStatus"><rect codeLine="59" fill="#FFFFFF" height="130.2539" id="ProjectStatus" rx="3.125" ry="3.125" style="stroke:#181818;stroke-width:0.625;" width="200" x="298.125" y="471.1157"/><ellipse cx="316.875" cy="491.1157" fill="#EB937F" rx="13.75" ry="13.75" style="stroke:#181818;stroke-width:1.25;"/><path d="M315.8203,491.7993 L315.8203,494.729 L320.9375,494.729 L320.9375,493.6548 Q320.9375,492.9321 321.2109,492.6196 Q321.4844,492.3071 321.9336,492.3071 Q322.3828,492.3071 322.6563,492.6196 Q322.9297,492.9321 322.9297,493.6548 L322.9297,496.7407 L313.5156,496.7407 Q312.793,496.7407 312.4805,496.4575 Q312.168,496.1743 312.168,495.7251 Q312.168,495.2954 312.4805,495.0122 Q312.793,494.729 313.5156,494.729 L313.8281,494.729 L313.8281,486.897 L313.5156,486.897 Q312.793,486.897 312.4805,486.6235 Q312.168,486.3501 312.168,485.9009 Q312.168,485.4517 312.4805,485.1685 Q312.793,484.8853 313.5156,484.8853 L322.5,484.9048 L322.5,487.9517 Q322.5,488.6548 322.2266,488.9673 Q321.9531,489.2798 321.5039,489.2798 Q321.0547,489.2798 320.7715,488.9771 Q320.4883,488.6743 320.4883,487.9517 L320.4883,486.897 L315.8203,486.897 L315.8203,489.7876 L317.5781,489.7876 Q317.5781,489.0063 317.7344,488.7915 Q318.0273,488.3032 318.5938,488.3032 Q319.0234,488.3032 319.3066,488.6157 Q319.5898,488.9282 319.5898,489.6509 L319.5898,491.9556 Q319.5898,492.6001 319.4336,492.8345 Q319.1211,493.2837 318.5938,493.2837 Q318.0273,493.2837 317.7344,492.8149 Q317.5781,492.5806 317.5781,491.7993 L315.8203,491.7993 Z " fill="#000000"/><ellipse cx="340.625" cy="490.4907" fill="#84BE84" rx="3.75" ry="3.75" style="stroke:#038048;stroke-width:1.25;"/><text fill="#000000" font-family="Consolas" font-size="20" lengthAdjust="spacing" textLength="146.25" x="348.125" y="499.3872">ProjectStatus</text><line style="stroke:#181818;stroke-width:0.625;" x1="299.375" x2="496.875" y1="511.1157" y2="511.1157"/><ellipse cx="311.875" cy="529.6997" fill="none" rx="3.75" ry="3.75" style="stroke:#038048;stroke-width:1.25;"/><text fill="#000000" font-family="Consolas" font-size="20" lengthAdjust="spacing" textLength="123.75" x="323.125" y="536.0962">Development</text><ellipse cx="311.875" cy="553.1177" fill="none" rx="3.75" ry="3.75" style="stroke:#038048;stroke-width:1.25;"/><text fill="#000000" font-family="Consolas" font-size="20" lengthAdjust="spacing" textLength="78.75" x="323.125" y="559.5142">Release</text><ellipse cx="311.875" cy="576.5356" fill="none" rx="3.75" ry="3.75" style="stroke:#038048;stroke-width:1.25;"/><text fill="#000000" font-family="Consolas" font-size="20" lengthAdjust="spacing" textLength="67.5" x="323.125" y="582.9321">Stable</text><line style="stroke:#181818;stroke-width:0.625;" x1="299.375" x2="496.875" y1="591.3696" y2="591.3696"/></g><!--class UserLevel--><g id="elem_UserLevel"><rect codeLine="66" fill="#FFFFFF" height="153.6719" id="UserLevel" rx="3.125" ry="3.125" style="stroke:#181818;stroke-width:0.625;" width="178.75" x="542.5" y="459.2407"/><ellipse cx="571.9375" cy="479.2407" fill="#EB937F" rx="13.75" ry="13.75" style="stroke:#181818;stroke-width:1.25;"/><path d="M570.8828,479.9243 L570.8828,482.854 L576,482.854 L576,481.7798 Q576,481.0571 576.2734,480.7446 Q576.5469,480.4321 576.9961,480.4321 Q577.4453,480.4321 577.7188,480.7446 Q577.9922,481.0571 577.9922,481.7798 L577.9922,484.8657 L568.5781,484.8657 Q567.8555,484.8657 567.543,484.5825 Q567.2305,484.2993 567.2305,483.8501 Q567.2305,483.4204 567.543,483.1372 Q567.8555,482.854 568.5781,482.854 L568.8906,482.854 L568.8906,475.022 L568.5781,475.022 Q567.8555,475.022 567.543,474.7485 Q567.2305,474.4751 567.2305,474.0259 Q567.2305,473.5767 567.543,473.2935 Q567.8555,473.0103 568.5781,473.0103 L577.5625,473.0298 L577.5625,476.0767 Q577.5625,476.7798 577.2891,477.0923 Q577.0156,477.4048 576.5664,477.4048 Q576.1172,477.4048 575.834,477.1021 Q575.5508,476.7993 575.5508,476.0767 L575.5508,475.022 L570.8828,475.022 L570.8828,477.9126 L572.6406,477.9126 Q572.6406,477.1313 572.7969,476.9165 Q573.0898,476.4282 573.6563,476.4282 Q574.0859,476.4282 574.3691,476.7407 Q574.6523,477.0532 574.6523,477.7759 L574.6523,480.0806 Q574.6523,480.7251 574.4961,480.9595 Q574.1836,481.4087 573.6563,481.4087 Q573.0898,481.4087 572.7969,480.9399 Q572.6406,480.7056 572.6406,479.9243 L570.8828,479.9243 Z " fill="#000000"/><ellipse cx="598.0625" cy="478.6157" fill="#84BE84" rx="3.75" ry="3.75" style="stroke:#038048;stroke-width:1.25;"/><text fill="#000000" font-family="Consolas" font-size="20" lengthAdjust="spacing" textLength="101.25" x="605.5625" y="487.5122">UserLevel</text><line style="stroke:#181818;stroke-width:0.625;" x1="543.75" x2="720" y1="499.2407" y2="499.2407"/><ellipse cx="556.25" cy="517.8247" fill="none" rx="3.75" ry="3.75" style="stroke:#038048;stroke-width:1.25;"/><text fill="#000000" font-family="Consolas" font-size="20" lengthAdjust="spacing" textLength="67.5" x="567.5" y="524.2212">Viewer</text><ellipse cx="556.25" cy="541.2427" fill="none" rx="3.75" ry="3.75" style="stroke:#038048;stroke-width:1.25;"/><text fill="#000000" font-family="Consolas" font-size="20" lengthAdjust="spacing" textLength="90" x="567.5" y="547.6392">Reporter</text><ellipse cx="556.25" cy="564.6606" fill="none" rx="3.75" ry="3.75" style="stroke:#038048;stroke-width:1.25;"/><text fill="#000000" font-family="Consolas" font-size="20" lengthAdjust="spacing" textLength="101.25" x="567.5" y="571.0571">Developer</text><ellipse cx="556.25" cy="588.0786" fill="none" rx="3.75" ry="3.75" style="stroke:#038048;stroke-width:1.25;"/><text fill="#000000" font-family="Consolas" font-size="20" lengthAdjust="spacing" textLength="146.25" x="567.5" y="594.4751">Administrator</text><line style="stroke:#181818;stroke-width:0.625;" x1="543.75" x2="720" y1="602.9126" y2="602.9126"/></g><!--class Issue--><g id="elem_Issue"><rect codeLine="74" fill="#FFFFFF" height="411.2695" id="Issue" rx="3.125" ry="3.125" style="stroke:#181818;stroke-width:0.625;" width="392.5" x="765.625" y="330.4907"/><ellipse cx="921.5625" cy="350.4907" fill="#ADD1B2" rx="13.75" ry="13.75" style="stroke:#181818;stroke-width:1.25;"/><path d="M924.7656,345.4126 Q924.9609,345.1587 925.1758,345.0317 Q925.3906,344.9048 925.6445,344.9048 Q926.0938,344.9048 926.3672,345.2075 Q926.6406,345.5103 926.6406,346.2329 L926.6406,347.9321 Q926.6406,348.6548 926.3672,348.9575 Q926.0938,349.2603 925.6445,349.2603 Q925.2539,349.2603 925,349.0454 Q924.7656,348.811 924.6484,348.2056 Q924.5703,347.7954 924.375,347.561 Q923.9648,347.1313 923.252,346.8677 Q922.5391,346.604 921.8164,346.604 Q920.918,346.604 920.166,346.9946 Q919.4141,347.3853 918.8379,348.2642 Q918.2617,349.1431 918.2617,350.354 L918.2617,351.6431 Q918.2617,353.0884 919.3066,354.0552 Q920.3516,355.022 922.2266,355.022 Q923.3398,355.022 924.1016,354.729 Q924.5508,354.5532 925.0586,354.0259 Q925.3711,353.7134 925.5469,353.6255 Q925.7227,353.5376 925.957,353.5376 Q926.3477,353.5376 926.6504,353.8403 Q926.9531,354.1431 926.9531,354.5532 Q926.9531,354.9634 926.543,355.4321 Q925.957,356.1157 925.0195,356.5063 Q923.75,357.0337 922.2266,357.0337 Q920.4492,357.0337 919.0234,356.2915 Q917.8711,355.7056 917.0605,354.4458 Q916.25,353.186 916.25,351.6821 L916.25,350.3345 Q916.25,348.772 916.9824,347.4146 Q917.7148,346.0571 919.0039,345.3247 Q920.293,344.5923 921.7383,344.5923 Q922.5977,344.5923 923.3594,344.7974 Q924.1211,345.0024 924.7656,345.4126 Z " fill="#000000"/><ellipse cx="953.4375" cy="349.8657" fill="#84BE84" rx="3.75" ry="3.75" style="stroke:#038048;stroke-width:1.25;"/><text fill="#000000" font-family="Consolas" font-size="20" lengthAdjust="spacing" textLength="56.25" x="960.9375" y="358.7622">Issue</text><line style="stroke:#181818;stroke-width:0.625;" x1="766.875" x2="1156.875" y1="370.4907" y2="370.4907"/><ellipse cx="779.375" cy="389.0747" fill="none" rx="3.75" ry="3.75" style="stroke:#038048;stroke-width:1.25;"/><text fill="#000000" font-family="Consolas" font-size="20" lengthAdjust="spacing" textLength="135" x="790.625" y="395.4712">IssueId: int</text><ellipse cx="779.375" cy="412.4927" fill="none" rx="3.75" ry="3.75" style="stroke:#038048;stroke-width:1.25;"/><text fill="#000000" font-family="Consolas" font-size="20" lengthAdjust="spacing" textLength="157.5" x="790.625" y="418.8892">ProjectId: int</text><ellipse cx="779.375" cy="435.9106" fill="none" rx="3.75" ry="3.75" style="stroke:#038048;stroke-width:1.25;"/><text fill="#000000" font-family="Consolas" font-size="20" lengthAdjust="spacing" textLength="180" x="790.625" y="442.3071">SubmitterId: int</text><ellipse cx="779.375" cy="459.3286" fill="none" rx="3.75" ry="3.75" style="stroke:#038048;stroke-width:1.25;"/><text fill="#000000" font-family="Consolas" font-size="20" lengthAdjust="spacing" textLength="202.5" x="790.625" y="465.7251">AssignedToId: int?</text><ellipse cx="779.375" cy="482.7466" fill="none" rx="3.75" ry="3.75" style="stroke:#038048;stroke-width:1.25;"/><text fill="#000000" font-family="Consolas" font-size="20" lengthAdjust="spacing" textLength="236.25" x="790.625" y="489.1431">SubmittedOn: DateTime</text><ellipse cx="779.375" cy="506.1646" fill="none" rx="3.75" ry="3.75" style="stroke:#038048;stroke-width:1.25;"/><text fill="#000000" font-family="Consolas" font-size="20" lengthAdjust="spacing" textLength="247.5" x="790.625" y="512.561">LastUpdated: DateTime?</text><ellipse cx="779.375" cy="529.5825" fill="none" rx="3.75" ry="3.75" style="stroke:#038048;stroke-width:1.25;"/><text fill="#000000" font-family="Consolas" font-size="20" lengthAdjust="spacing" textLength="202.5" x="790.625" y="535.979">Priority: Priority</text><ellipse cx="779.375" cy="553.0005" fill="none" rx="3.75" ry="3.75" style="stroke:#038048;stroke-width:1.25;"/><text fill="#000000" font-family="Consolas" font-size="20" lengthAdjust="spacing" textLength="202.5" x="790.625" y="559.397">Severity: Severity</text><ellipse cx="779.375" cy="576.4185" fill="none" rx="3.75" ry="3.75" style="stroke:#038048;stroke-width:1.25;"/><text fill="#000000" font-family="Consolas" font-size="20" lengthAdjust="spacing" textLength="360" x="790.625" y="582.8149">Reproducibility: Reproducibility</text><ellipse cx="779.375" cy="599.8364" fill="none" rx="3.75" ry="3.75" style="stroke:#038048;stroke-width:1.25;"/><text fill="#000000" font-family="Consolas" font-size="20" lengthAdjust="spacing" textLength="213.75" x="790.625" y="606.2329">Status: IssueStatus</text><ellipse cx="779.375" cy="623.2544" fill="none" rx="3.75" ry="3.75" style="stroke:#038048;stroke-width:1.25;"/><text fill="#000000" font-family="Consolas" font-size="20" lengthAdjust="spacing" textLength="168.75" x="790.625" y="629.6509">Summary: string</text><ellipse cx="779.375" cy="646.6724" fill="none" rx="3.75" ry="3.75" style="stroke:#038048;stroke-width:1.25;"/><text fill="#000000" font-family="Consolas" font-size="20" lengthAdjust="spacing" textLength="213.75" x="790.625" y="653.0688">Description: string</text><ellipse cx="779.375" cy="670.0903" fill="none" rx="3.75" ry="3.75" style="stroke:#038048;stroke-width:1.25;"/><text fill="#000000" font-family="Consolas" font-size="20" lengthAdjust="spacing" textLength="270" x="790.625" y="676.4868">StetsToReproduce: string</text><ellipse cx="779.375" cy="693.5083" fill="none" rx="3.75" ry="3.75" style="stroke:#038048;stroke-width:1.25;"/><text fill="#000000" font-family="Consolas" font-size="20" lengthAdjust="spacing" textLength="247.5" x="790.625" y="699.9048">AdditionalInfo: string</text><ellipse cx="779.375" cy="716.9263" fill="none" rx="3.75" ry="3.75" style="stroke:#038048;stroke-width:1.25;"/><text fill="#000000" font-family="Consolas" font-size="20" lengthAdjust="spacing" textLength="247.5" x="790.625" y="723.3228">Notes: List&lt;IssueNote&gt;</text><line style="stroke:#181818;stroke-width:0.625;" x1="766.875" x2="1156.875" y1="731.7603" y2="731.7603"/></g><!--class IssueNote--><g id="elem_IssueNote"><rect codeLine="93" fill="#FFFFFF" height="130.2539" id="IssueNote" rx="3.125" ry="3.125" style="stroke:#181818;stroke-width:0.625;" width="268.75" x="8.75" y="851.7407"/><ellipse cx="80.3125" cy="871.7407" fill="#ADD1B2" rx="13.75" ry="13.75" style="stroke:#181818;stroke-width:1.25;"/><path d="M83.5156,866.6626 Q83.7109,866.4087 83.9258,866.2817 Q84.1406,866.1548 84.3945,866.1548 Q84.8438,866.1548 85.1172,866.4575 Q85.3906,866.7603 85.3906,867.4829 L85.3906,869.1821 Q85.3906,869.9048 85.1172,870.2075 Q84.8438,870.5103 84.3945,870.5103 Q84.0039,870.5103 83.75,870.2954 Q83.5156,870.061 83.3984,869.4556 Q83.3203,869.0454 83.125,868.811 Q82.7148,868.3813 82.002,868.1177 Q81.2891,867.854 80.5664,867.854 Q79.668,867.854 78.916,868.2446 Q78.1641,868.6353 77.5879,869.5142 Q77.0117,870.3931 77.0117,871.604 L77.0117,872.8931 Q77.0117,874.3384 78.0566,875.3052 Q79.1016,876.272 80.9766,876.272 Q82.0898,876.272 82.8516,875.979 Q83.3008,875.8032 83.8086,875.2759 Q84.1211,874.9634 84.2969,874.8755 Q84.4727,874.7876 84.707,874.7876 Q85.0977,874.7876 85.4004,875.0903 Q85.7031,875.3931 85.7031,875.8032 Q85.7031,876.2134 85.293,876.6821 Q84.707,877.3657 83.7695,877.7563 Q82.5,878.2837 80.9766,878.2837 Q79.1992,878.2837 77.7734,877.5415 Q76.6211,876.9556 75.8105,875.6958 Q75,874.436 75,872.9321 L75,871.5845 Q75,870.022 75.7324,868.6646 Q76.4648,867.3071 77.7539,866.5747 Q79.043,865.8423 80.4883,865.8423 Q81.3477,865.8423 82.1094,866.0474 Q82.8711,866.2524 83.5156,866.6626 Z " fill="#000000"/><ellipse cx="112.1875" cy="871.1157" fill="#84BE84" rx="3.75" ry="3.75" style="stroke:#038048;stroke-width:1.25;"/><text fill="#000000" font-family="Consolas" font-size="20" lengthAdjust="spacing" textLength="101.25" x="119.6875" y="880.0122">IssueNote</text><line style="stroke:#181818;stroke-width:0.625;" x1="10" x2="276.25" y1="891.7407" y2="891.7407"/><ellipse cx="22.5" cy="910.3247" fill="none" rx="3.75" ry="3.75" style="stroke:#038048;stroke-width:1.25;"/><text fill="#000000" font-family="Consolas" font-size="20" lengthAdjust="spacing" textLength="236.25" x="33.75" y="916.7212">SubmittedOn: DateTime</text><ellipse cx="22.5" cy="933.7427" fill="none" rx="3.75" ry="3.75" style="stroke:#038048;stroke-width:1.25;"/><text fill="#000000" font-family="Consolas" font-size="20" lengthAdjust="spacing" textLength="180" x="33.75" y="940.1392">SubmitterId: int</text><ellipse cx="22.5" cy="957.1606" fill="none" rx="3.75" ry="3.75" style="stroke:#038048;stroke-width:1.25;"/><text fill="#000000" font-family="Consolas" font-size="20" lengthAdjust="spacing" textLength="135" x="33.75" y="963.5571">Text: string</text><line style="stroke:#181818;stroke-width:0.625;" x1="10" x2="276.25" y1="971.9946" y2="971.9946"/></g><!--class Project--><g id="elem_Project"><rect codeLine="100" fill="#FFFFFF" height="200.5078" id="Project" rx="3.125" ry="3.125" style="stroke:#181818;stroke-width:0.625;" width="370" x="321.875" y="816.7407"/><ellipse cx="455.3125" cy="836.7407" fill="#ADD1B2" rx="13.75" ry="13.75" style="stroke:#181818;stroke-width:1.25;"/><path d="M458.5156,831.6626 Q458.7109,831.4087 458.9258,831.2817 Q459.1406,831.1548 459.3945,831.1548 Q459.8438,831.1548 460.1172,831.4575 Q460.3906,831.7603 460.3906,832.4829 L460.3906,834.1821 Q460.3906,834.9048 460.1172,835.2075 Q459.8438,835.5103 459.3945,835.5103 Q459.0039,835.5103 458.75,835.2954 Q458.5156,835.061 458.3984,834.4556 Q458.3203,834.0454 458.125,833.811 Q457.7148,833.3813 457.002,833.1177 Q456.2891,832.854 455.5664,832.854 Q454.668,832.854 453.916,833.2446 Q453.1641,833.6353 452.5879,834.5142 Q452.0117,835.3931 452.0117,836.604 L452.0117,837.8931 Q452.0117,839.3384 453.0566,840.3052 Q454.1016,841.272 455.9766,841.272 Q457.0898,841.272 457.8516,840.979 Q458.3008,840.8032 458.8086,840.2759 Q459.1211,839.9634 459.2969,839.8755 Q459.4727,839.7876 459.707,839.7876 Q460.0977,839.7876 460.4004,840.0903 Q460.7031,840.3931 460.7031,840.8032 Q460.7031,841.2134 460.293,841.6821 Q459.707,842.3657 458.7695,842.7563 Q457.5,843.2837 455.9766,843.2837 Q454.1992,843.2837 452.7734,842.5415 Q451.6211,841.9556 450.8105,840.6958 Q450,839.436 450,837.9321 L450,836.5845 Q450,835.022 450.7324,833.6646 Q451.4648,832.3071 452.7539,831.5747 Q454.043,830.8423 455.4883,830.8423 Q456.3477,830.8423 457.1094,831.0474 Q457.8711,831.2524 458.5156,831.6626 Z " fill="#000000"/><ellipse cx="487.1875" cy="836.1157" fill="#84BE84" rx="3.75" ry="3.75" style="stroke:#038048;stroke-width:1.25;"/><text fill="#000000" font-family="Consolas" font-size="20" lengthAdjust="spacing" textLength="78.75" x="494.6875" y="845.0122">Project</text><line style="stroke:#181818;stroke-width:0.625;" x1="323.125" x2="690.625" y1="856.7407" y2="856.7407"/><ellipse cx="335.625" cy="875.3247" fill="none" rx="3.75" ry="3.75" style="stroke:#038048;stroke-width:1.25;"/><text fill="#000000" font-family="Consolas" font-size="20" lengthAdjust="spacing" textLength="157.5" x="346.875" y="881.7212">ProjectId: int</text><ellipse cx="335.625" cy="898.7427" fill="none" rx="3.75" ry="3.75" style="stroke:#038048;stroke-width:1.25;"/><text fill="#000000" font-family="Consolas" font-size="20" lengthAdjust="spacing" textLength="135" x="346.875" y="905.1392">Name: string</text><ellipse cx="335.625" cy="922.1606" fill="none" rx="3.75" ry="3.75" style="stroke:#038048;stroke-width:1.25;"/><text fill="#000000" font-family="Consolas" font-size="20" lengthAdjust="spacing" textLength="213.75" x="346.875" y="928.5571">Description: string</text><ellipse cx="335.625" cy="945.5786" fill="none" rx="3.75" ry="3.75" style="stroke:#038048;stroke-width:1.25;"/><text fill="#000000" font-family="Consolas" font-size="20" lengthAdjust="spacing" textLength="236.25" x="346.875" y="951.9751">SubmittedOn: DateTime</text><ellipse cx="335.625" cy="968.9966" fill="none" rx="3.75" ry="3.75" style="stroke:#038048;stroke-width:1.25;"/><text fill="#000000" font-family="Consolas" font-size="20" lengthAdjust="spacing" textLength="180" x="346.875" y="975.3931">SubmitterId: int</text><ellipse cx="335.625" cy="992.4146" fill="none" rx="3.75" ry="3.75" style="stroke:#038048;stroke-width:1.25;"/><text fill="#000000" font-family="Consolas" font-size="20" lengthAdjust="spacing" textLength="337.5" x="346.875" y="998.811">Issues: Dictionary&lt;int, Issue&gt;</text><line style="stroke:#181818;stroke-width:0.625;" x1="323.125" x2="690.625" y1="1007.2485" y2="1007.2485"/></g><!--class User--><g id="elem_User"><rect codeLine="110" fill="#FFFFFF" height="177.0898" id="User" rx="3.125" ry="3.125" style="stroke:#181818;stroke-width:0.625;" width="257.5" x="735.625" y="827.9907"/><ellipse cx="829.6875" cy="847.9907" fill="#ADD1B2" rx="13.75" ry="13.75" style="stroke:#181818;stroke-width:1.25;"/><path d="M832.8906,842.9126 Q833.0859,842.6587 833.3008,842.5317 Q833.5156,842.4048 833.7695,842.4048 Q834.2188,842.4048 834.4922,842.7075 Q834.7656,843.0103 834.7656,843.7329 L834.7656,845.4321 Q834.7656,846.1548 834.4922,846.4575 Q834.2188,846.7603 833.7695,846.7603 Q833.3789,846.7603 833.125,846.5454 Q832.8906,846.311 832.7734,845.7056 Q832.6953,845.2954 832.5,845.061 Q832.0898,844.6313 831.377,844.3677 Q830.6641,844.104 829.9414,844.104 Q829.043,844.104 828.291,844.4946 Q827.5391,844.8853 826.9629,845.7642 Q826.3867,846.6431 826.3867,847.854 L826.3867,849.1431 Q826.3867,850.5884 827.4316,851.5552 Q828.4766,852.522 830.3516,852.522 Q831.4648,852.522 832.2266,852.229 Q832.6758,852.0532 833.1836,851.5259 Q833.4961,851.2134 833.6719,851.1255 Q833.8477,851.0376 834.082,851.0376 Q834.4727,851.0376 834.7754,851.3403 Q835.0781,851.6431 835.0781,852.0532 Q835.0781,852.4634 834.668,852.9321 Q834.082,853.6157 833.1445,854.0063 Q831.875,854.5337 830.3516,854.5337 Q828.5742,854.5337 827.1484,853.7915 Q825.9961,853.2056 825.1855,851.9458 Q824.375,850.686 824.375,849.1821 L824.375,847.8345 Q824.375,846.272 825.1074,844.9146 Q825.8398,843.5571 827.1289,842.8247 Q828.418,842.0923 829.8633,842.0923 Q830.7227,842.0923 831.4844,842.2974 Q832.2461,842.5024 832.8906,842.9126 Z " fill="#000000"/><ellipse cx="861.5625" cy="847.3657" fill="#84BE84" rx="3.75" ry="3.75" style="stroke:#038048;stroke-width:1.25;"/><text fill="#000000" font-family="Consolas" font-size="20" lengthAdjust="spacing" textLength="45" x="869.0625" y="856.2622">User</text><line style="stroke:#181818;stroke-width:0.625;" x1="736.875" x2="991.875" y1="867.9907" y2="867.9907"/><ellipse cx="749.375" cy="886.5747" fill="none" rx="3.75" ry="3.75" style="stroke:#038048;stroke-width:1.25;"/><text fill="#000000" font-family="Consolas" font-size="20" lengthAdjust="spacing" textLength="123.75" x="760.625" y="892.9712">UserId: int</text><ellipse cx="749.375" cy="909.9927" fill="none" rx="3.75" ry="3.75" style="stroke:#038048;stroke-width:1.25;"/><text fill="#000000" font-family="Consolas" font-size="20" lengthAdjust="spacing" textLength="135" x="760.625" y="916.3892">Name: string</text><ellipse cx="749.375" cy="933.4106" fill="none" rx="3.75" ry="3.75" style="stroke:#038048;stroke-width:1.25;"/><text fill="#000000" font-family="Consolas" font-size="20" lengthAdjust="spacing" textLength="146.25" x="760.625" y="939.8071">Email: string</text><ellipse cx="749.375" cy="956.8286" fill="none" rx="3.75" ry="3.75" style="stroke:#038048;stroke-width:1.25;"/><text fill="#000000" font-family="Consolas" font-size="20" lengthAdjust="spacing" textLength="213.75" x="760.625" y="963.2251">Description: string</text><ellipse cx="749.375" cy="980.2466" fill="none" rx="3.75" ry="3.75" style="stroke:#038048;stroke-width:1.25;"/><text fill="#000000" font-family="Consolas" font-size="20" lengthAdjust="spacing" textLength="225" x="760.625" y="986.6431">UserLevel: UserLevel</text><line style="stroke:#181818;stroke-width:0.625;" x1="736.875" x2="991.875" y1="995.0806" y2="995.0806"/></g><!--SRC=[bLHDRzim3BtxL-ZU7TOTUZ2A5MdIOW6oj6YIxQn6ZCD64Zr9Rf8D_U-ZRScnssBeSkAN7X_95_iTsb8wQOI2ZQnqk2KRvjA069FrfANF_7ib2_mDuloYbvoqoIKSmaXZOGtO83HiGg_cNgvtie0b1WslYhQeG6o8mYCT-YrB5ETVFlSYCzo0HWkBu6I0uYYO9QfUGPqCnn84kR2bNcBCq_Xhfb0uggmQaoOdzbiCa6MXfYIkgsB6RYucPEIDhGnm3-H526bL-nvybfq1fyIzGt8OZjcVJF3lR4uMMcj6-nHoHkhM_eR5jhLMhk2nMtjg32ZaGRANXBk0P-ZZte8CbOlGIuVFc22NUv2xrloEbbmqvLConqxwxGdv0Kf7gbhZ8-fUWvNTMThRrbcGWO26nspS1nwSJ6kFz5uU_Gbkwdt5Ps1slji1nCb7tlDvGKKKu2Cz9s-ioRCzn6bAgdhP2UkkXCZf5W_fxSgwRWWDARR1W-pSEOstqXQC-Aj2bnx-PD4o3dSLwNpq1EiG-OlOTCBBrrIQxa0Fe47w2Ct5JPkE-ig3czLF4kaV27jmwMd94anUH4xkI1cqw6iHyxLgm7KjhtOP2QrnfYeNcEX4reFOedeq6BZH89ekiAGOlXfMgplBEcVbBVdQKRVIXrMfEAPEgQlKk5LxVj9z2nVLcfzqcuRlQor_8xwqKDv-Ff1IP6cCTFoCDuIsI2lqQuTbBP9XOX4W-2Mb5Z3CZfJ2-etKKxkXOMvE0RZ_Z2znsP2e0rzVtwCEfflyOt_l7wB-8dPDJy3naWdslSFMt-6FRk1_MJLpyUGJN3UxSSTBpdrgv-qle9PuzwNmhr3UChmn4lK7INV_dhptHthv2m00]--></g></svg>