<?xml version="1.0" encoding="UTF-8" standalone="no"?>
<svg
   viewBox="0 0 512 512"
   x="0px"
   y="0px"
   version="1.1"
   id="svg2"
   sodipodi:docname="bug.svg"
   width="512"
   height="512"
   inkscape:version="1.3.2 (091e20e, 2023-11-25, custom)"
   inkscape:export-filename="bug.png"
   inkscape:export-xdpi="3"
   inkscape:export-ydpi="3"
   xmlns:inkscape="http://www.inkscape.org/namespaces/inkscape"
   xmlns:sodipodi="http://sodipodi.sourceforge.net/DTD/sodipodi-0.dtd"
   xmlns="http://www.w3.org/2000/svg"
   xmlns:svg="http://www.w3.org/2000/svg"
   xmlns:rdf="http://www.w3.org/1999/02/22-rdf-syntax-ns#"
   xmlns:cc="http://creativecommons.org/ns#"
   xmlns:dc="http://purl.org/dc/elements/1.1/">
  <defs
     id="defs2" />
  <sodipodi:namedview
     id="namedview2"
     pagecolor="#ffffff"
     bordercolor="#000000"
     borderopacity="0.25"
     inkscape:showpageshadow="2"
     inkscape:pageopacity="0.0"
     inkscape:pagecheckerboard="0"
     inkscape:deskcolor="#d1d1d1"
     inkscape:zoom="1.4882812"
     inkscape:cx="255.66404"
     inkscape:cy="256"
     inkscape:window-width="1920"
     inkscape:window-height="1013"
     inkscape:window-x="-9"
     inkscape:window-y="-9"
     inkscape:window-maximized="1"
     inkscape:current-layer="svg2" />
  <title
     id="title1">bug</title>
  <path
     d="m 352.69497,104.31972 v 2.21219 a 132.23037,134.45221 0 0 0 -24.17374,-2.21219 H 183.47877 a 132.25213,134.47433 0 0 0 -24.17374,2.21219 v -2.21219 a 96.69497,98.319718 0 0 1 193.38994,0 z m 96.69497,294.95914 h -40.62398 a 167.42734,170.24059 0 0 0 14.55018,-49.15985 h 74.42128 v -49.15986 h -72.52123 v -49.15986 h 24.17375 a 24.173742,24.579929 0 0 0 21.62341,-13.58533 l 34.98666,-71.1466 -43.24925,-21.98675 -28.30503,57.55882 h -22.68222 a 96.375875,97.995261 0 0 0 -83.24228,-49.15986 h -48.34749 v 342.15262 a 169.0494,171.8899 0 0 0 96.69497,-50.16272 v 2.96925 h 57.57702 L 462.75076,506 506.00001,484.01325 471.01335,412.86665 A 24.173742,24.579929 0 0 0 449.38994,399.27886 Z M 100.23649,202.63943 H 77.554271 L 49.249237,145.07815 5.999995,167.0649 40.986652,238.21151 a 24.173742,24.579929 0 0 0 21.623412,13.58778 h 24.173742 v 49.15986 H 14.26258 v 49.15986 h 74.423699 a 167.42734,170.24059 0 0 0 14.550171,49.15985 H 62.610064 A 24.173742,24.579929 0 0 0 40.986652,412.86419 L 5.999995,484.01325 49.249237,506 77.554271,448.43872 h 57.577019 v -2.96434 a 169.0494,171.8899 0 0 0 96.69497,50.15781 V 153.47957 h -48.34749 a 96.375875,97.995261 0 0 0 -83.24228,49.15986 z"
     id="path1"
     style="stroke-width:1;fill:#d40000" />
  <metadata
     id="metadata2">
    <rdf:RDF>
      <cc:Work
         rdf:about="">
        <dc:title>bug</dc:title>
      </cc:Work>
    </rdf:RDF>
  </metadata>
</svg>
