<?xml version="1.0" encoding="UTF-8" standalone="no"?>
<svg
   viewBox="0 0 512 512"
   fill="none"
   x="0px"
   y="0px"
   version="1.1"
   id="svg4"
   sodipodi:docname="closed.svg"
   width="512"
   height="512"
   inkscape:version="1.3.2 (091e20e, 2023-11-25, custom)"
   inkscape:export-filename="closed.png"
   inkscape:export-xdpi="3"
   inkscape:export-ydpi="3"
   xmlns:inkscape="http://www.inkscape.org/namespaces/inkscape"
   xmlns:sodipodi="http://sodipodi.sourceforge.net/DTD/sodipodi-0.dtd"
   xmlns="http://www.w3.org/2000/svg"
   xmlns:svg="http://www.w3.org/2000/svg">
  <defs
     id="defs4" />
  <sodipodi:namedview
     id="namedview4"
     pagecolor="#ffffff"
     bordercolor="#000000"
     borderopacity="0.25"
     inkscape:showpageshadow="2"
     inkscape:pageopacity="0.0"
     inkscape:pagecheckerboard="0"
     inkscape:deskcolor="#d1d1d1"
     inkscape:zoom="1.4882812"
     inkscape:cx="255.66404"
     inkscape:cy="256"
     inkscape:window-width="1920"
     inkscape:window-height="1013"
     inkscape:window-x="-9"
     inkscape:window-y="-9"
     inkscape:window-maximized="1"
     inkscape:current-layer="svg4" />
  <path
     id="path4"
     style="fill:#008000;fill-rule:evenodd;stroke:#000000;stroke-width:0;paint-order:markers fill stroke"
     d="M 255.99999,6 A 250,250 0 0 0 6.00001,256 a 250,250 0 0 0 249.99998,250 250,250 0 0 0 250,-250 250,250 0 0 0 -250,-250 z m 0,68.535156 A 181.46457,181.46457 0 0 1 437.46489,256 181.46457,181.46457 0 0 1 255.99999,437.46484 181.46457,181.46457 0 0 1 74.53517,256 181.46457,181.46457 0 0 1 255.99999,74.535156 Z" />
  <circle
     style="fill:none;fill-rule:evenodd;stroke:#000000;stroke-width:0;paint-order:markers fill stroke"
     id="circle4"
     cx="256"
     cy="256"
     r="230" />
  <path
     id="rect5"
     style="fill:#008000;fill-rule:evenodd;stroke:#000000;stroke-width:0;paint-order:markers fill stroke"
     d="m 366.70118,141.87444 c -6.6984,0 -13.3966,2.56655 -18.5293,7.69922 L 210.86325,286.88225 163.82614,239.84514 c -10.26535,-10.26535 -26.79324,-10.26535 -37.0586,1e-5 l -9.97656,9.97851 c -10.26535,10.26535 -10.26535,26.79324 0,37.05859 l 65.56641,65.56641 9.97656,9.97656 c 5.77426,5.77426 13.53086,8.30187 21.03906,7.58008 5.83972,-0.56139 11.52845,-3.08898 16.01954,-7.58007 l 9.99613,-9.9961 155.8203,-155.81836 c 10.2654,-10.26536 10.2654,-26.79324 0,-37.05859 l -9.9785,-9.97852 c -5.1327,-5.13268 -11.8309,-7.69922 -18.5293,-7.69922 z" />
</svg>
