<?xml version="1.0" encoding="UTF-8" standalone="no"?>
<!-- Created with Inkscape (http://www.inkscape.org/) -->

<svg
   width="512"
   height="512"
   viewBox="0 0 102.4 102.4"
   version="1.1"
   id="svg1"
   inkscape:version="1.3.2 (091e20e, 2023-11-25, custom)"
   xml:space="preserve"
   sodipodi:docname="in_work.svg"
   inkscape:export-filename="in_work.png"
   inkscape:export-xdpi="3"
   inkscape:export-ydpi="3"
   xmlns:inkscape="http://www.inkscape.org/namespaces/inkscape"
   xmlns:sodipodi="http://sodipodi.sourceforge.net/DTD/sodipodi-0.dtd"
   xmlns="http://www.w3.org/2000/svg"
   xmlns:svg="http://www.w3.org/2000/svg"><sodipodi:namedview
     id="namedview1"
     pagecolor="#ffffff"
     bordercolor="#000000"
     borderopacity="0.25"
     inkscape:showpageshadow="2"
     inkscape:pageopacity="0.0"
     inkscape:pagecheckerboard="0"
     inkscape:deskcolor="#d1d1d1"
     inkscape:document-units="px"
     inkscape:zoom="1.4882812"
     inkscape:cx="255.66404"
     inkscape:cy="256"
     inkscape:window-width="1920"
     inkscape:window-height="1013"
     inkscape:window-x="-9"
     inkscape:window-y="-9"
     inkscape:window-maximized="1"
     inkscape:current-layer="layer1" /><defs
     id="defs1" /><g
     inkscape:label="Layer 1"
     inkscape:groupmode="layer"
     id="layer1"><path
       d="M 71.193985,94.375364 A 60.001981,65.547706 0 0 0 93.156245,4.8355277 L 81.608855,12.118606 A 46.668207,50.981549 0 0 1 64.527105,81.760704 33.334435,36.415393 0 0 1 31.192679,18.687388 20.000662,21.849237 0 0 1 51.193339,56.531374 6.6668867,7.2830785 0 0 1 44.526459,43.916711 l 5.77368,-3.641538 -6.66688,-12.614661 -5.7737,3.641538 A 20.00066,21.849235 0 0 0 57.860215,69.146034 33.334435,36.415394 0 0 0 24.52579,6.0727247 46.668209,50.981551 0 0 0 71.193985,94.375364 Z"
       id="path1"
       style="fill:#0066ff;stroke-width:0.2" /></g></svg>
